<svg xmlns="http://www.w3.org/2000/svg" viewBox="0 0 500 500"><g id="freepik--Floor--inject-2"><polygon id="freepik--floor--inject-2" points="10.59 457.15 10.09 456.28 270.31 306.04 270.56 306.19 485.85 430.49 485.35 431.35 270.31 307.2 10.59 457.15" style="fill:#e0e0e0"/></g><g id="freepik--Window--inject-2"><g id="freepik--window--inject-2"><g id="freepik--window--inject-2"><g id="freepik--Frame--inject-2"><polygon points="468.32 261.85 465.9 262.68 376.52 211.08 378.94 210.25 468.32 261.85" style="fill:#fafafa"/><polygon points="378.94 210.25 465.9 260.44 465.89 110.53 378.94 60.35 378.94 210.25" style="fill:#fff"/><path d="M372,212.58l98.52,56.89V109L372,52.15Zm4.57-153.65,89.37,51.6V262.68l-89.38-51.6Z" style="fill:#f0f0f0"/><polygon points="376.52 211.08 378.94 210.25 378.94 60.35 376.52 58.93 376.52 211.08" style="fill:#e0e0e0"/><polygon points="465.9 215.63 465.9 217.87 376.52 166.27 378.94 165.43 465.9 215.63" style="fill:#fafafa"/><polygon points="465.9 148.98 465.9 151.22 376.52 99.61 378.94 98.78 465.9 148.98" style="fill:#fafafa"/><polygon points="371.95 52.15 374.41 51.35 472.93 108.23 470.47 109.03 371.95 52.15" style="fill:#fafafa"/><polygon points="472.93 108.23 470.47 109.03 470.47 269.46 472.93 268.67 472.93 108.23" style="fill:#e0e0e0"/><polygon points="426.04 87.52 423.58 86.1 423.58 238.26 426.04 237.46 426.04 87.52" style="fill:#e0e0e0"/></g><polygon points="419.01 83.47 423.58 86.1 423.58 238.26 419.01 235.61 419.01 83.47" style="fill:#f0f0f0"/><polygon points="371.95 96.97 371.95 101.11 470.47 158 470.47 153.86 371.95 96.97" style="fill:#f0f0f0"/><polygon points="371.95 163.62 371.95 167.76 470.47 224.64 470.47 220.5 371.95 163.62" style="fill:#f0f0f0"/><polygon points="423.58 126.78 426.04 125.97 465.9 148.98 465.9 151.22 423.58 126.78" style="fill:#fafafa"/><polygon points="423.58 193.41 426.04 192.6 465.9 215.61 465.9 217.84 423.58 193.41" style="fill:#fafafa"/></g></g></g><g id="freepik--Pictures--inject-2"><g id="freepik--Picture--inject-2"><g id="freepik--frame--inject-2"><polygon points="353.04 182.63 351.01 183.84 309.32 159.66 311.36 158.45 353.04 182.63" style="fill:#fafafa"/><polygon points="311.36 158.45 351.01 181.44 351.09 139.87 311.44 116.89 311.36 158.45" style="fill:#fff"/><path d="M305.48,161.86l49.35,28.63.11-52.83L305.58,109Zm3.92-46.17,41.69,24.18-.08,44-41.69-24.18Z" style="fill:#f0f0f0"/><polygon points="309.32 159.66 311.36 158.45 311.44 116.89 309.4 115.69 309.32 159.66" style="fill:#e0e0e0"/><polygon points="305.58 109.03 307.65 107.86 357 136.48 354.94 137.66 305.58 109.03" style="fill:#fafafa"/><polygon points="357 136.48 354.94 137.66 354.83 190.49 356.9 189.31 357 136.48" style="fill:#e0e0e0"/></g><g id="freepik--Land--inject-2"><polygon points="312.91 157.21 349.47 178.41 349.49 167.85 340.38 146.7 334.67 151.97 336.7 160.83 324.11 133.78 312.93 146.64 312.91 157.21" style="fill:#f0f0f0"/><path d="M335,136.48a6,6,0,0,1,2.7,4.7c0,1.72-1.22,2.42-2.71,1.55a6,6,0,0,1-2.7-4.69C332.34,136.31,333.55,135.62,335,136.48Z" style="fill:#f0f0f0"/></g></g><g id="freepik--picture--inject-2"><g id="freepik--frame--inject-2"><polygon points="353.04 111.68 351.01 112.89 309.32 88.71 311.36 87.5 353.04 111.68" style="fill:#fafafa"/><polygon points="311.36 87.5 351.01 110.49 351.09 68.92 311.44 45.94 311.36 87.5" style="fill:#fff"/><path d="M305.48,90.92l49.35,28.62.11-52.83L305.58,38.09Zm3.92-46.18,41.69,24.18-.08,44L309.32,88.71Z" style="fill:#f0f0f0"/><polygon points="309.32 88.71 311.36 87.5 311.44 45.94 309.4 44.74 309.32 88.71" style="fill:#e0e0e0"/><polygon points="305.58 38.09 307.65 36.91 357 65.53 354.94 66.71 305.58 38.09" style="fill:#fafafa"/><polygon points="357 65.53 354.94 66.71 354.83 119.54 356.9 118.36 357 65.53" style="fill:#e0e0e0"/></g><g id="freepik--land--inject-2"><polygon points="312.91 86.26 349.47 107.46 349.49 96.9 340.38 75.75 334.67 81.02 336.7 89.88 324.11 62.83 312.93 75.69 312.91 86.26" style="fill:#f0f0f0"/><path d="M335,65.53a6,6,0,0,1,2.7,4.7c0,1.72-1.22,2.42-2.71,1.55a6,6,0,0,1-2.7-4.69C332.34,65.36,333.55,64.67,335,65.53Z" style="fill:#f0f0f0"/></g></g></g><g id="freepik--Door--inject-2"><g id="freepik--door--inject-2"><g id="freepik--Interior--inject-2"><polygon points="158.64 377.29 40.77 445.26 45.27 313.7 158.64 377.29" style="fill:#e0e0e0"/></g><g id="freepik--interior--inject-2" style="opacity:.15"><polygon points="158.64 377.29 40.77 445.26 40.86 309.45 158.64 377.29"/></g><g id="freepik--door--inject-2"><g id="freepik--door--inject-2"><path d="M35.41,120.56V442.24l117.87-68V52.59ZM87.12,233.3,52.81,253v-129l34.31-19.74Zm49.55-28.68-34.2,19.77v-129l34.21-19.76Z" style="fill:#95755a"/><path d="M35.41,120.56V442.24l117.87-68V52.59ZM87.12,233.3,52.81,253v-129l34.31-19.74Zm49.55-28.68-34.2,19.77v-129l34.21-19.76Z" style="fill:#fff;opacity:.4"/><polygon points="87.11 233.3 90.82 235.44 52.81 257.32 52.81 253.04 87.11 233.3" style="fill:#fff;opacity:.4"/><polygon points="136.67 204.63 140.38 206.77 102.48 228.67 98.77 226.53 136.67 204.63" style="fill:#fff;opacity:.4"/><polygon points="136.67 204.63 136.67 75.61 140.39 73.46 140.38 206.77 136.67 204.63" style="fill:#95755a;opacity:.7000000000000001"/><polygon points="90.82 235.44 102.48 228.67 102.48 95.42 90.82 102.19 90.82 235.44" style="fill:#95755a"/><polygon points="90.82 235.44 102.48 228.67 102.48 95.42 90.82 102.19 90.82 235.44" style="fill:#fff;opacity:.4"/><polygon points="90.82 235.44 87.11 233.3 87.11 104.33 90.82 102.19 90.82 235.44" style="fill:#95755a;opacity:.7000000000000001"/><polygon points="90.82 253.24 52.81 275.13 52.81 412.51 90.82 390.62 90.82 253.24" style="fill:#fff;opacity:.4"/><polygon points="88.21 261.89 58.8 278.81 58.81 401.9 88.21 384.99 88.21 261.89" style="fill:#95755a"/><polygon points="88.21 261.89 58.8 278.81 58.81 401.9 88.21 384.99 88.21 261.89" style="fill:#fff;opacity:.4"/><polygon points="52.81 275.13 58.8 278.81 58.81 401.9 52.81 412.51 52.81 275.13" style="fill:#95755a;opacity:.7000000000000001"/><polygon points="90.82 253.24 88.21 261.89 88.21 384.99 90.82 390.62 90.82 253.24" style="fill:#95755a;opacity:.7000000000000001"/><polygon points="90.82 390.62 88.21 384.99 58.81 401.9 52.81 412.51 90.82 390.62" style="fill:#95755a"/><polygon points="140.39 224.57 102.48 246.47 102.48 383.85 140.39 361.95 140.39 224.57" style="fill:#fff;opacity:.4"/><polygon points="137.78 233.22 108.48 250.15 108.48 373.24 137.78 356.31 137.78 233.22" style="fill:#95755a"/><polygon points="137.78 233.22 108.48 250.15 108.48 373.24 137.78 356.31 137.78 233.22" style="fill:#fff;opacity:.4"/><polygon points="102.48 246.47 108.48 250.15 108.48 373.24 102.48 383.85 102.48 246.47" style="fill:#95755a;opacity:.7000000000000001"/><polygon points="140.39 224.57 137.78 233.22 137.78 356.31 140.39 361.95 140.39 224.57" style="fill:#95755a;opacity:.7000000000000001"/><polygon points="140.39 361.95 137.78 356.31 108.48 373.24 102.48 383.85 140.39 361.95" style="fill:#95755a"/><g id="freepik--Latch--inject-2"><polygon points="42.07 264.03 43.97 265.13 43.97 296.67 42.07 295.57 42.07 264.03" style="fill:#e0e0e0"/><polygon points="43.97 265.13 54.22 259.21 54.22 290.75 43.97 296.67 43.97 265.13" style="fill:#fafafa"/><path d="M54.22,267.89l-4.49,2.59v5.13a.62.62,0,0,0,.92.53l3.57-2.06Z" style="opacity:.05"/><polygon points="54.22 259.21 52.32 258.12 42.07 264.03 43.97 265.13 54.22 259.21" style="fill:#ebebeb"/><path d="M47.9,269.42l4.7,2.72,1.88-3.26-4.7-2.71h0a.93.93,0,0,0-.94.09,2.94,2.94,0,0,0-1.33,2.3A.93.93,0,0,0,47.9,269.42Z" style="fill:#e0e0e0"/><polygon points="49.73 270.48 51.44 271.47 51.44 269.22 53.26 268.17 51.55 267.19 49.73 268.24 49.73 270.48" style="opacity:.1"/><polygon points="52.01 269.58 52.01 274.51 70.79 263.67 70.79 258.74 52.01 269.58" style="fill:#fafafa"/><polygon points="52.01 269.58 50.3 268.59 50.3 273.52 52.01 274.51 52.01 269.58" style="fill:#e0e0e0"/><polygon points="70.79 258.74 69.08 257.75 50.3 268.59 52.01 269.58 70.79 258.74" style="fill:#ebebeb"/><path d="M47.37,283.31a3.8,3.8,0,0,1,1.72-3c1-.55,1.73-.11,1.73,1a3.85,3.85,0,0,1-1,2.43V287a1.3,1.3,0,0,1-.58,1l-.21.12c-.32.18-.58,0-.58-.34v-3.22C47.8,284.59,47.37,284.13,47.37,283.31Z" style="fill:#455a64"/></g></g><polygon points="30.02 439.13 35.41 442.24 35.41 120.56 30.01 117.45 30.02 439.13" style="fill:#263238"/><polygon points="147.88 49.47 30.01 117.45 35.41 120.56 153.28 52.59 147.88 49.47" style="fill:#37474f"/></g><g id="freepik--Casing--inject-2"><polygon points="153.28 374.28 158.64 377.29 158.64 49.49 153.28 52.58 153.28 374.28" style="fill:#e0e0e0"/><polygon points="158.64 377.29 167.53 372.15 167.53 32.7 31.85 110.96 31.86 450.37 40.77 445.26 40.77 117.47 158.63 49.49 158.64 377.29" style="fill:#f0f0f0"/><polygon points="167.53 32.7 31.85 110.96 26.59 107.9 162.27 29.65 167.53 32.7" style="fill:#fafafa"/><polygon points="31.85 450.37 31.85 110.96 26.59 107.9 26.59 447.33 31.85 450.37" style="fill:#e0e0e0"/></g></g></g><g id="freepik--Padlock--inject-2"><g id="freepik--padlock--inject-2"><path d="M346.38,277.78c0-2.28,1.5-4.56,4.52-6.31l8.89-5.13c6-3.48,15.81-3.48,21.84,0l80.59,46.53c3,1.74,4.52,4,4.52,6.31h0V425.62h0c0,2.29-1.5,4.58-4.52,6.32l-8.89,5.13c-6,3.48-15.81,3.48-21.84,0L350.9,390.54c-3-1.74-4.52-4-4.52-6.3h0V277.78Z" style="fill:#95755a"/><path d="M346.38,277.78c0-2.28,1.5-4.56,4.52-6.31l8.89-5.13c6-3.48,15.81-3.48,21.84,0l80.59,46.53c3,1.74,4.52,4,4.52,6.31h0V425.62h0c0,2.29-1.5,4.58-4.52,6.32l-8.89,5.13c-6,3.48-15.81,3.48-21.84,0L350.9,390.54c-3-1.74-4.52-4-4.52-6.3h0V277.78Z" style="fill:#fff;opacity:.4"/><path d="M453.33,330.61l8.89-5.13c6-3.48,6-9.13,0-12.61l-80.59-46.53c-6-3.48-15.81-3.48-21.84,0l-8.89,5.13c-6,3.49-6,9.13,0,12.61l80.59,46.53C437.52,334.09,447.3,334.09,453.33,330.61Z" style="fill:#fff;opacity:.4"/><path d="M442.4,333.22V439.68a22.27,22.27,0,0,0,10.92-2.6l8.9-5.14c3-1.74,4.54-4,4.51-6.33V319.17c0,2.3-1.49,4.57-4.51,6.31l-8.9,5.14A22.27,22.27,0,0,1,442.4,333.22Z" style="fill:#95755a;opacity:.30000000000000004"/><path d="M383.75,385.88,403,397l-3-34.81c2.3-1.22,3.77-4.21,3.77-8.51,0-7.67-4.66-16.57-10.41-19.89S383,334,383,341.65a26.15,26.15,0,0,0,3.77,12.86Z" style="fill:#455a64"/><polygon points="383.75 385.88 401.18 375.81 402.99 396.99 383.75 385.88" style="fill:#37474f"/><path d="M393.37,333.78c3.76,2.17,7.05,6.74,8.88,11.78l-15.52,9h0A26.15,26.15,0,0,1,383,341.65C383,334,387.62,330.46,393.37,333.78Z" style="fill:#37474f"/><path d="M368.15,280.15h0V237.58c0-13.19,5-23.62,13.67-28.64,8.29-4.79,18.55-4.14,28.88,1.83,19,10.95,33.83,37.68,33.83,60.85v42.79h0c0,1.29-.85,2.58-2.55,3.56a13.62,13.62,0,0,1-12.31,0c-1.7-1-2.56-2.27-2.56-3.56h0V271.62c0-17-11.5-37.9-25.12-45.77-4.65-2.68-8.82-3.35-11.46-1.82-3.1,1.79-5,6.86-5,13.55v42.56h0v0h0c0,1.28-.87,2.55-2.55,3.52a13.62,13.62,0,0,1-12.31,0c-1.69-1-2.54-2.24-2.55-3.52h0Z" style="fill:#455a64"/></g></g><g id="freepik--Keys--inject-2"><g id="freepik--Key--inject-2"><path d="M333.14,424v2.69c0,3.17,2.07,6.34,6.26,8.76,6.3,3.64,15.56,4.52,23.31,2.67l7.2,4.15,5.53-1.25,3.78,2.18.2,4.57,2,1.17,5.1.45,3.68,2.05V454l4.6,2.66h11.72l4.2-2.42v-2.72l-37.47-18.92a8.62,8.62,0,0,0,2.59-5.89V424c-.56-2.63-2.75-4-6.25-6-8.35-4.82-21.88-4.82-30.23,0C335.64,420.16,333.51,421.16,333.14,424Zm11.47-3.15a9.45,9.45,0,0,1,8.57,0c2.36,1.37,2.36,3.58,0,4.94a9.45,9.45,0,0,1-8.57,0C342.25,424.43,342.25,422.22,344.61,420.85Z" style="fill:#e0e0e0"/><path d="M339.4,432.73c6.3,3.63,15.56,4.52,23.31,2.67l7.2,4.15,5.53-1.25,3.78,2.18.2,4.57,2,1.17,5.1.45,4,2.22-.31,2.4,4.6,2.66h11.72l4.2-2.42-37.47-21.64c4.41-4.68,3.2-10.66-3.66-14.62-8.35-4.82-21.88-4.82-30.23,0S331.05,427.91,339.4,432.73Zm5.21-14.6a9.45,9.45,0,0,1,8.57,0c2.36,1.36,2.36,3.58,0,4.94a9.45,9.45,0,0,1-8.57,0C342.25,421.71,342.25,419.49,344.61,418.13Z" style="fill:#f0f0f0"/><g style="opacity:.1"><path d="M340.63,430.6c-3.2-1.85-5-4.25-5-6.6s1.84-4.75,5-6.6a31,31,0,0,1,27.77,0c3.2,1.85,5,4.25,5,6.6s-1.83,4.75-5,6.6a31,31,0,0,1-27.77,0Zm.38-12.53c-2.95,1.7-4.65,3.86-4.65,5.93s1.7,4.23,4.65,5.93a30.27,30.27,0,0,0,27,0c3-1.7,4.65-3.87,4.65-5.93s-1.7-4.23-4.65-5.93a30.18,30.18,0,0,0-27,0Z"/></g><path d="M346.82,435.51v2.72a36.25,36.25,0,0,0,15.89-.11V435.4A36.25,36.25,0,0,1,346.82,435.51Z" style="opacity:.1"/><polygon points="369.91 439.55 369.91 442.27 375.44 441.02 375.44 438.3 369.91 439.55" style="opacity:.1"/><polygon points="379.22 440.48 379.22 443.2 379.42 447.77 379.42 445.05 379.22 440.48" style="opacity:.1"/><polygon points="381.46 446.22 381.46 448.94 386.56 449.39 386.56 446.67 381.46 446.22" style="opacity:.1"/><rect width="11.72" height="2.72" x="394.84" y="453.95" style="opacity:.1"/><polygon points="410.76 451.52 410.76 454.25 406.56 456.67 406.56 453.95 408.4 452.89 408.4 454.06 409.41 453.47 409.41 452.29 410.76 451.52" style="opacity:.15"/><polygon points="409.41 452.29 408.4 452.89 408.4 454.06 409.41 453.47 409.41 452.29" style="fill:#95755a"/><polygon points="409.41 452.29 409.41 453.47 370.99 431.29 372 430.69 409.41 452.29" style="opacity:.15"/><polygon points="372 430.69 372 431.87 370.99 431.29 372 430.69" style="opacity:.15"/></g><g id="freepik--key--inject-2"><path d="M158.9,411.79l-.54.31-.5-.31v-.59l-1.32-.77-37.47,21.63c-8.1-2.55-18.46-1.85-25.32,2.11-4.21,2.43-6.29,5.62-6.25,8.8v2.61c0,3.15,2.08,6.3,6.25,8.7,8.35,4.82,21.88,4.82,30.23,0,4.19-2.41,6.27-5.58,6.25-8.74V442.9a7.58,7.58,0,0,0-.52-2.71l6.1-3.52V434l-.87-1.28,2.48-1.43,7.9-.12,2-1.18.78-2.95,3.85-2.3,4.15.18,4.61-2.66v-9.42ZM98.7,448.61a4.07,4.07,0,0,1-1.32-1.14,4.32,4.32,0,0,1,1.32-1.14,9.45,9.45,0,0,1,8.57,0,4.16,4.16,0,0,1,1.31,1.14,3.92,3.92,0,0,1-1.31,1.14A9.45,9.45,0,0,1,98.7,448.61Z" style="fill:#e0e0e0"/><path d="M130.2,443.62V446c-.16,3-2.22,6-6.22,8.33a27.56,27.56,0,0,1-9.07,3.11v-2.68a27,27,0,0,0,9.07-3.1C127.83,449.39,129.92,446.54,130.2,443.62Z" style="opacity:.1"/><polyline points="120.86 433.03 120.45 432.8 157.86 411.2" style="opacity:.15"/><polygon points="137.42 431.3 137.42 428.64 133.64 430.81 134.94 432.73 137.42 431.3" style="opacity:.15"/><polygon points="145.32 428.52 145.32 431.18 137.42 431.3 137.42 428.64 145.32 428.52" style="opacity:.1"/><polygon points="148.13 424.39 148.13 427.05 147.35 430 147.35 427.34 148.13 424.39" style="opacity:.1"/><polygon points="151.98 424.75 151.98 422.09 148.13 424.39 148.13 427.05 151.98 424.75" style="opacity:.15"/><polygon points="151.98 422.09 156.13 422.27 156.13 424.93 151.98 424.75 151.98 422.09" style="opacity:.1"/><path d="M124,451.62c6.31-3.63,7.84-9,4.63-13.45l7.2-4.16-2.17-3.19,3.78-2.18,7.9-.12,2-1.18.78-2.95,3.85-2.3,4.15.18,4.61-2.66v-6.76l-1.84-1.06-.54.31-.5-.31v-.59l-1.32-.77-37.47,21.63c-8.1-2.55-18.46-1.85-25.32,2.11-8.35,4.82-8.35,12.63,0,17.45S115.63,456.44,124,451.62Zm-25.28-3c-2.36-1.36-2.36-3.58,0-4.94a9.45,9.45,0,0,1,8.57,0c2.36,1.36,2.36,3.58,0,4.94A9.45,9.45,0,0,1,98.7,448.61Z" style="fill:#f0f0f0"/><g style="opacity:.1"><path d="M108.87,452.78A28.35,28.35,0,0,1,95,449.5c-3.2-1.85-5-4.26-5-6.6s1.83-4.76,5-6.6A28.25,28.25,0,0,1,108.87,433a28.23,28.23,0,0,1,13.88,3.29c3.2,1.84,5,4.25,5,6.6s-1.84,4.75-5,6.6A28.34,28.34,0,0,1,108.87,452.78Zm0-19A27.56,27.56,0,0,0,95.36,437c-3,1.71-4.64,3.87-4.64,5.94s1.69,4.22,4.64,5.93A27.56,27.56,0,0,0,108.87,452a27.52,27.52,0,0,0,13.5-3.18c2.95-1.7,4.65-3.87,4.65-5.93s-1.7-4.23-4.65-5.94A27.52,27.52,0,0,0,108.87,433.78Z"/></g><polygon points="157.86 411.2 157.86 411.79 158.37 412.1 121.49 433.39 120.45 432.8 157.86 411.2" style="opacity:.15"/><polyline points="157.86 411.2 157.86 411.79 120.86 433.03" style="opacity:.15"/></g></g><g id="freepik--Plant--inject-2"><g id="freepik--Plants--inject-2"><path d="M297.88,334.24c-9.25,1.58-18,17.34-19.69,33.3A101.05,101.05,0,0,0,279.38,394l2.05,1.49,1.15.84,4,2.89,2.47,1.8a71,71,0,0,1,2-19.69h0A47.84,47.84,0,0,1,295,371c3.36-6.45,8.35-12.74,10.5-17.19C310.89,342.73,306.5,332.77,297.88,334.24Z" style="fill:#95755a"/><path d="M297.88,334.24c-9.25,1.58-18,17.34-19.69,33.3A101.05,101.05,0,0,0,279.38,394l2.05,1.49,1.15.84,4,2.89,2.47,1.8a71,71,0,0,1,2-19.69h0A47.84,47.84,0,0,1,295,371c3.36-6.45,8.35-12.74,10.5-17.19C310.89,342.73,306.5,332.77,297.88,334.24Z" style="fill:#fff;opacity:.65"/><path d="M300.19,340.64c-10,9.15-19,31.16-17.61,55.71l-1.15-.84c-1.15-24.54,7.95-46.52,18-55.7a.56.56,0,1,1,.74.83Z" style="fill:#fff"/><path d="M306.1,364c-5.83,2.22-10,6.58-15.05,17.33h0a50.4,50.4,0,0,0-4.46,17.89l2.47,1.8,1.15.83,1.05.75,1.46,1.08a29,29,0,0,1,6.16-10c8.1-9.29,18.39-15.54,19.69-21.14C320.13,365.82,315.52,360.44,306.1,364Z" style="fill:#95755a"/><path d="M306.1,364c-5.83,2.22-10,6.58-15.05,17.33h0a50.4,50.4,0,0,0-4.46,17.89l2.47,1.8,1.15.83,1.05.75,1.46,1.08a29,29,0,0,1,6.16-10c8.1-9.29,18.39-15.54,19.69-21.14C320.13,365.82,315.52,360.44,306.1,364Z" style="fill:#fff;opacity:.30000000000000004"/><path d="M308.47,372.16a.57.57,0,0,0,.24-.76.56.56,0,0,0-.76-.23c-6.35,3.34-16.23,12.88-19.52,29.41l.63.46.4.29C292.67,384.79,302.66,375.21,308.47,372.16Z" style="fill:#fff"/></g></g><g id="freepik--Shadow--inject-2"><ellipse id="freepik--shadow--inject-2" cx="248.41" cy="429.59" rx="69.59" ry="40.18" style="fill:#e0e0e0"/></g><g id="freepik--Character--inject-2"><g id="freepik--character--inject-2"><g id="freepik--Bottom--inject-2"><path d="M205.21,404.89c1.07-14.84-.59-26.21.64-49.37h0c.11-5.94.33-12.3.73-17.95,1.33-19,4.27-25.51,4.54-29.18,0,0,.5-29.58,1.74-71.18.59-19.57,6.26-25.5,10.79-35.89h53.86c6,25.63,7.73,81.53,7.55,108-.09,13.46-5.53,85.51-5.64,87.17-.38,5.88.13,8.2,2.43,10.67,4.83,5.18,11.82,10.11,17.87,14.62-.87,2.31-8.15,2.23-11.75.47a92.53,92.53,0,0,1-13.42-8.56c-5-3.68-11.32-6.63-11.4-12.23a4.87,4.87,0,0,0-.17-1c-.09-3.26-7.71-51.46-8.34-62.64-.55-9.62.62-25.93.62-25.93l-6.2-40.74s-3.83,24.08-7.7,40.52C238.22,325,233,347.83,229.48,364.3h0c-3.41,19-8.41,32.47-9.27,42-.27,2.27-2.83,24.52-3.89,29.62s-12.17,5.23-12.89-3.54C203,426.52,205,407.68,205.21,404.89Z" style="fill:#ffbda7"/><path d="M249.06,271.1l4.53-29.38s17.54-2.08,23.92-8.21c0,0-8,11.35-19.94,13.2l-5,24.36,2.64,40.42Z" style="fill:#f28f8f"/><path d="M310,427.64c.31,0,.81,3.38-.85,4.84-1.91,1.69-7.54,4.48-15,3.59s-11.57-3.16-14.58-5.63-7.25-6-10.65-6.67c-3.14-.66-6.57-2-7.59-3s-.92-5.28-.92-5.28Z" style="fill:#263238"/><path d="M262.83,398.83s-.57,0-.75,1c-.22,1.19-.43,4.65-.9,6.61-.66,2.72-1.06,8.29-.62,10.5s5.57,3.69,8.86,4.9a41.57,41.57,0,0,1,10.67,6.59c3.55,2.86,11,5.68,15.84,5.7,7.45,0,12.24-2,13.7-4.73,1.81-3.33.34-5.23-8.25-9.1-1.63-.73-7.35-4-9.3-5.23a43.89,43.89,0,0,1-5.86-4.27,33.55,33.55,0,0,1-2.64-2.56,11.48,11.48,0,0,1-2.19-2.74c-.1-.22-.17-.49-.26-.72a11.46,11.46,0,0,1-.58-2c-.15-.71-.24-1.74-.93-2.16a5.74,5.74,0,0,0-3.05-.33,24.33,24.33,0,0,0-3.3.5c-1.25.3-2.71.43-3.44,1.62a6.23,6.23,0,0,0-.67,3.1c0,.5,0,1,0,1.5,0,.22.09.6-.21.51s-.61-.82-.72-1.07c-.24-.56-.4-1.16-.66-1.7a9.09,9.09,0,0,0-1.09-1.8,8.39,8.39,0,0,0-1.36-1.37,13.17,13.17,0,0,1-1.48-.93A3.46,3.46,0,0,1,262.83,398.83Z" style="fill:#37474f"/><path d="M302.77,421c-10.77.86-14.09,7.55-14.5,11.67a25.68,25.68,0,0,0,7.66,1.52c7.45,0,12.55-2,14-4.73C311.64,426.29,310.43,423.79,302.77,421Z" style="fill:#fafafa"/><path d="M286.62,421.25a.51.51,0,0,1-.33-.11.53.53,0,0,1-.09-.74,12.69,12.69,0,0,1,9.7-3.95.54.54,0,0,1,.48.58.52.52,0,0,1-.58.47,11.7,11.7,0,0,0-8.77,3.56A.56.56,0,0,1,286.62,421.25Z" style="fill:#f0f0f0"/><path d="M282,418.6a.54.54,0,0,1-.33-.12.51.51,0,0,1-.08-.73,12.61,12.61,0,0,1,9.69-3.95.54.54,0,0,1,.48.58.53.53,0,0,1-.58.47,11.68,11.68,0,0,0-8.77,3.55A.51.51,0,0,1,282,418.6Z" style="fill:#f0f0f0"/><path d="M277.62,415.56a.53.53,0,0,1-.41-.86,12.66,12.66,0,0,1,9.69-3.94.53.53,0,1,1-.1,1.05,11.72,11.72,0,0,0-8.77,3.55A.53.53,0,0,1,277.62,415.56Z" style="fill:#f0f0f0"/><path d="M273.38,412.52a.57.57,0,0,1-.33-.11.53.53,0,0,1-.09-.74c2-2.63,6.68-4.39,10.59-4a.53.53,0,0,1,.47.58.52.52,0,0,1-.57.47c-3.53-.35-7.86,1.27-9.66,3.6A.51.51,0,0,1,273.38,412.52Z" style="fill:#f0f0f0"/><path d="M219.81,439.86c-.3,5.08-1.09,8.45-2.89,11.43s-5.2,3.92-8.65,3-7.85-3.2-8.84-7.58-1.56-7.39-.78-12.1Z" style="fill:#263238"/><path d="M205.33,403.07c-1.42.11-1.84,6.94-2.66,13.77-.88,7.32-3.06,10.34-3.84,16.35-.9,6.86.24,9.92,2.64,14.07s10.91,8.21,15.1,2.27c3.42-4.84,3.56-10.21,3.25-17.06a150.5,150.5,0,0,1,.45-17.35c.28-5.14,1.42-10.31.18-10.88-.09.75-.18,1.71-.28,2.45a12.66,12.66,0,0,1-.46,2.74c-.15.38-.46.78-.59.16a3.93,3.93,0,0,1,0-1.28c.21-1.89-.75-2.05-1.26-2.19a64.32,64.32,0,0,0-6.58-.94c-1.09-.07-4.83-.23-5.32.38a4.36,4.36,0,0,0-.47,2c-.12,1-.36,1.79-.39,1.46-.07-.74.07-2.66.09-3.12s.09-1.05.1-1.5S205.3,403.51,205.33,403.07Z" style="fill:#37474f"/><path d="M198.43,437.16a17.06,17.06,0,0,0,2.66,10.42c2.4,4.15,11.59,8.23,15.78,2.29,2.09-2.95,2.65-6.45,2.93-10C217.29,435.28,202.39,433.26,198.43,437.16Z" style="fill:#fafafa"/><path d="M216.71,432.4a.41.41,0,0,1-.18,0c-.05,0-6.62-2.74-13-1.26a.53.53,0,0,1-.24-1c6.76-1.56,13.46,1.23,13.71,1.34a.53.53,0,0,1-.28,1Z" style="fill:#f0f0f0"/><path d="M203.84,426a.52.52,0,0,1-.12-1c6.36-2.16,13.42,1.08,13.69,1.22a.52.52,0,0,1,.22.71.54.54,0,0,1-.71.22c-.06,0-6.94-3.17-12.86-1.16A.42.42,0,0,1,203.84,426Z" style="fill:#f0f0f0"/><path d="M204.06,421.16a.53.53,0,0,1-.44-.35.52.52,0,0,1,.32-.67c7-2.51,13.69,1,13.94,1.18a.52.52,0,1,1-.54.9c-.06,0-6.54-3.42-13.05-1.09A.46.46,0,0,1,204.06,421.16Z" style="fill:#f0f0f0"/><path d="M204.41,416.41a.51.51,0,0,1-.44-.33.52.52,0,0,1,.31-.68c6.55-2.46,13.77,1.17,14,1.32a.53.53,0,0,1,.19.72.52.52,0,0,1-.72.2c-.06,0-7.06-3.54-13.14-1.26A.5.5,0,0,1,204.41,416.41Z" style="fill:#ebebeb"/><path d="M216.69,201.49c-4.46,12.75-8,20.81-7.73,55.41.28,37.36.94,44.63.81,48.8s-2.56,11.63-4.7,32.18.39,45,.39,45,1.47,3.31,9.33,4c7.25.64,10.84-2.08,10.84-2.08s9.94-40,12.69-52.39,10.74-53.08,10.74-53.08l4.74,33s-2.21,11.34,0,29.36,6.11,36.48,6.11,36.48A32.5,32.5,0,0,0,271,380.05a18.8,18.8,0,0,0,9.77-2.55S287,323.88,287,303.45s-1.73-71.49-8.16-101.73Z" style="fill:#37474f"/><path d="M255.53,240.1l-6.47,39.28,4.74,33-2-33.45,5.78-32.23c4.92-1.18,16.13-7.09,19.21-15.52C269.19,239.13,255.53,240.1,255.53,240.1ZM223.46,345.82q-2.86,16-5.32,32,3.71-15.8,7-31.66c2.22-10.58,4.32-21.14,6.4-31.79s3.25-21.43,4.29-32.19,1.85-21.54,2.5-32.33c-1.49,10.7-2.83,21.43-4.18,32.14s-2.78,21.4-4.75,32S225.34,335.19,223.46,345.82Zm55.86-53.73c.21,4.68.49,9.39.41,14s-.38,9.36-.61,14.05l-.71,14.1q-.74,14.09-1.12,28.22,1.65-14,2.81-28.11c.77-9.39,1.49-18.75,1.81-28.23,0-9.52-.84-18.87-1.68-28.27s-2-18.74-3.45-28L278.54,278C278.8,282.71,279.11,287.4,279.32,292.09Z" style="fill:#263238"/></g><g id="freepik--Top--inject-2"><g id="freepik--Arm--inject-2"><path d="M264.84,139.38c12.61.73,16.44,8.55,22.43,16.31C292,161.87,301.8,176,301.8,176s19.59-9.39,22.8-12.46c2.2-2.11,1.53-3,5.15-6.58,2.55-2.5,5.48-4,6.94-6.27,1.15-1.78,3.93.12,2.26,3.77a18.41,18.41,0,0,1-1.95,3,14.15,14.15,0,0,0,4-2.54c2.83-3,3.68-6.35,7.66-7.66,1.68-.56,2.27.57,1.89,2a2.12,2.12,0,0,1,1.58,2.73c1.06.08,1.54,2.05,1.28,2.7.65.63,1.94,2.61-1,7.54a37.93,37.93,0,0,1-5.34,6.65A78.31,78.31,0,0,1,338.4,173a39.45,39.45,0,0,0-9.31,5.09c-4.17,2.83-14.49,11.12-23.94,17-7.85,4.88-11.24.51-16.8-6.22-3.67-4.45-15.62-19.12-15.62-19.12C267.49,160.45,263.12,146.08,264.84,139.38Z" style="fill:#ffbda7"/><path d="M341.08,163.31c-5.42-.85-10.51,2.49-11.35,6.9a6.2,6.2,0,0,1,2.57-6.3C334.16,162.48,338.06,162,341.08,163.31Z" style="fill:#f0997a"/></g><path d="M234.23,83.8a17.31,17.31,0,0,0-15-.22c-6.45,3.32-7.68,6.92-8.31,14.51-.95,11.4-1.76,14.83-3.14,17.42a9.62,9.62,0,0,1-5.68,4.74,6.67,6.67,0,0,0,6.46.32c-1.2,5.47-2.84,10.07-1.47,15.88.92,3.91,2.92,8.35,5.9,11.17,2.54,2.41,6.19,3.17,9.26,4.55-2-4.48-3.11-8.7-1.63-13.7,1.63-5.51,5.38-10.18,7.08-15.74,2.35-7.69,5-15.65,5.75-23.68A151.37,151.37,0,0,0,234.23,83.8Z" style="fill:#263238"/><path d="M235.29,83.31c-.72-1.18-5.17-1.78-8.6.6s-6.22,6.43-3.75,9.7C225.27,96.68,240,87.83,235.29,83.31Z" style="fill:#95755a"/><path d="M210,225c2.69-19.6,6.22-26.77,6.84-29.13,1.56-5.95-2.21-16.54-3.27-22.66-2.31-13.33,2.38-29.25,5.44-32,0,0,3.51-1,6.47-1.56,2.34-.48,4.08-1.13,7.24-1.62,8.42-1.31,15.73-1.23,18.37-.68,2.09.44,13.75,2,13.76,2A44,44,0,0,1,274.31,151c3.53,6,6.5,9.92,6.74,24,.28,16.55.86,32.58,1.42,49.75C269,233.47,227.91,234.92,210,225Z" style="fill:#455a64"/><g id="freepik--Head--inject-2"><g id="freepik--head--inject-2"><path d="M268.27,82.91a14.62,14.62,0,0,0-8.77-.84c-5.65-3.08-13.12-4-20.52-2.52-5.53,1.1-12.63,4.45-13.21,12.38-7.29,2.47-10.59,12.38-5.81,22.75,3.46,7.54,10.12,11.17,13.2,15.77l23.46-17.81c2.71,3.1,6.35,2.86,11.2-4.42C276.78,94.76,272.49,85.16,268.27,82.91Z" style="fill:#37474f"/><path d="M225.79,105.24c4.67-2.17,6.54,2.71,6.54,2.71,3.11,1.84,5.27-1.61,5.15-5.74-.1-3.44.85-9,4.4-10.43,2.64-1.06,3.78-.44,9.75.74,2.88.56,3.75,0,7.66-1.72,3.41-1.53,7.35,1.91,7.8,6.46.31,3.17,0,5.86.22,7.86a66,66,0,0,1,.71,6.68c0,13.7-2.74,16.25-5.32,18.36-2,1.67-5.25,2.78-9.84,2.51l0,5.72s5.09,9.66,5.79,18.34c-10.17-3.09-19.89-11.86-26.35-17.74L232,119.75c-1.15,1.49-4.77,2.13-7.35-1C221.31,114.62,221.32,107.32,225.79,105.24Z" style="fill:#ffbda7"/><path d="M252.86,132.67c-4.47-.35-8.72-1.24-11.86-3.13a12.59,12.59,0,0,1-4.78-5s.16,3.45,4.43,6.54c3.92,2.82,12.21,3.44,12.21,3.44Z" style="fill:#f0997a"/></g><polygon points="252.91 103.46 254.21 116.13 260.94 112.86 252.91 103.46" style="fill:#f0997a"/><path d="M248.44,118.4l6.48,1.62a3.29,3.29,0,0,1-4,2.53A3.47,3.47,0,0,1,248.44,118.4Z" style="fill:#b16668"/><path d="M250.56,120.1a3,3,0,0,0-2.12-.18,3.43,3.43,0,0,0,2.48,2.63,3.35,3.35,0,0,0,1.37,0A3.05,3.05,0,0,0,250.56,120.1Z" style="fill:#f28f8f"/><path d="M264.55,106c.43,1.06-.31,1.46-1.34,1.87s-2,.68-2.39-.39a2,2,0,1,1,3.73-1.48Z" style="fill:#263238"/><path d="M260.94,105.24a5.22,5.22,0,0,1,1.48-.62,4.27,4.27,0,0,1,1.55-.15,4.77,4.77,0,0,1,1.6.39s.08.13,0,.12a13.75,13.75,0,0,0-1.43-.07,7.82,7.82,0,0,0-1.73.29,7.3,7.3,0,0,0-1.93.83c-.2.11-.59.35-.63.38s-.11-.1-.08-.15A3.33,3.33,0,0,1,260.94,105.24Z" style="fill:#263238"/><path d="M261,99.72l4.72,1.32a2.58,2.58,0,0,0-1.76-3.1A2.39,2.39,0,0,0,261,99.72Z" style="fill:#263238"/><path d="M244.62,107c-.29,1.12.5,1.41,1.57,1.69s2,.42,2.32-.7a2,2,0,0,0-1.43-2.51A2.06,2.06,0,0,0,244.62,107Z" style="fill:#263238"/><path d="M248.11,105.78a5.23,5.23,0,0,0-1.55-.41,4.09,4.09,0,0,0-1.56,0,4.74,4.74,0,0,0-1.54.6s-.06.14,0,.12c.42-.08.79-.18,1.4-.25a7.4,7.4,0,0,1,1.76.06,7.74,7.74,0,0,1,2,.57c.21.09.62.27.66.3s.1-.12.07-.17A3.57,3.57,0,0,0,248.11,105.78Z" style="fill:#263238"/><path d="M246.26,100.54,242,102.88a2.57,2.57,0,0,1,1-3.41A2.39,2.39,0,0,1,246.26,100.54Z" style="fill:#263238"/></g><g id="freepik--key--inject-2"><path d="M336.67,145.61c-17.64-7.72-44.5-4.73-60,6.68-6.5,4.78-10.55,8-11.09,13.3l.6,5.41c.46,4,2.63,7.86,6.46,11.12l-70.19,45.81.6,5.4,8.87,3.88,23.25-2.59,8.56-6.3-.57-5.1,6.83-4.88,10-2,3.78-2.77-.6-9.11,7-5.16,11.26,1.26,13.37-9.84c15.79,2,34-1.83,45.67-10.45,7.78-5.72,11.22-12.47,10.5-18.75l-.6-5.35C349,150.61,344.59,149.08,336.67,145.61ZM328,162.25c-4.39,3.23-12,4.08-17,1.89s-5.48-6.58-1.09-9.81,12-4.08,17-1.89S332.43,159,328,162.25Z" style="fill:#95755a"/><path d="M336.67,145.61c-17.64-7.72-44.5-4.73-60,6.68-6.5,4.78-10.55,8-11.09,13.3l.6,5.41c.46,4,2.63,7.86,6.46,11.12l-70.19,45.81.6,5.4,8.87,3.88,23.25-2.59,8.56-6.3-.57-5.1,6.83-4.88,10-2,3.78-2.77-.6-9.11,7-5.16,11.26,1.26,13.37-9.84c15.79,2,34-1.83,45.67-10.45,7.78-5.72,11.22-12.47,10.5-18.75l-.6-5.35C349,150.61,344.59,149.08,336.67,145.61ZM328,162.25c-4.39,3.23-12,4.08-17,1.89s-5.48-6.58-1.09-9.81,12-4.08,17-1.89S332.43,159,328,162.25Z" style="opacity:.2"/><path d="M336.07,140.21c-17.64-7.72-44.5-4.73-60,6.68-12.74,9.38-13.83,21.51-4,29.83l-69.59,51.21,8.87,3.88,23.25-2.59,8.56-6.29L242,218.24l7.41-5.29,10-2,3.78-2.78-.6-9.11,7-5.16,11.25,1.26,13.38-9.84c15.79,2,34-1.83,45.67-10.45C355.43,163.44,353.7,147.93,336.07,140.21Zm-8.63,16.64c-4.39,3.23-12,4.08-17,1.89s-5.48-6.58-1.09-9.81,12-4.08,17-1.89S331.83,153.62,327.44,156.85Z" style="fill:#95755a"/><path d="M336.07,140.21c-17.64-7.72-44.5-4.73-60,6.68-12.74,9.38-13.83,21.51-4,29.83l-69.59,51.21,8.87,3.88,23.25-2.59,8.56-6.29L242,218.24l7.41-5.29,10-2,3.78-2.78-.6-9.11,7-5.16,11.25,1.26,13.38-9.84c15.79,2,34-1.83,45.67-10.45C355.43,163.44,353.7,147.93,336.07,140.21Zm-8.63,16.64c-4.39,3.23-12,4.08-17,1.89s-5.48-6.58-1.09-9.81,12-4.08,17-1.89S331.83,153.62,327.44,156.85Z" style="fill:#fff;opacity:.30000000000000004"/><g style="opacity:.2"><path d="M265.88,167.15,307,156c-1.38-2.21-.65-4.93,2.32-7.11,4.39-3.23,12-4.08,17-1.89a7.26,7.26,0,0,1,3.49,2.84l15-4.06a30.93,30.93,0,0,0-8.79-5.61c-.52-.22-1.06-.41-1.59-.61l-67.7,18.28A15.18,15.18,0,0,0,265.88,167.15Z" style="fill:#fff"/><path d="M348.93,164.54a15.07,15.07,0,0,0-1.59-15.95l-17.09,4.62a7.15,7.15,0,0,1-2.81,3.64c-4.39,3.23-12,4.08-17,1.89l-.24-.12L267,170.29a19.34,19.34,0,0,0,5.08,6.43L253.6,190.28Z" style="fill:#fff"/></g><path d="M310.18,180.49c-10.49,1.17-20.54-.06-28.29-3.45-6.76-3-10.93-7.33-11.45-12s2.59-9.83,8.53-14.21c6.82-5,16.35-8.42,26.84-9.58s20.53.05,28.29,3.45c6.75,3,10.92,7.33,11.44,12S343,166.53,337,170.9C330.19,175.92,320.66,179.32,310.18,180.49ZM306,142.78c-10.22,1.14-19.49,4.44-26.1,9.3-5.48,4-8.37,8.71-7.91,12.8s4.3,8,10.54,10.75c7.51,3.29,17.27,4.47,27.5,3.33s19.49-4.44,26.09-9.29c5.49-4,8.37-8.71,7.92-12.81s-4.3-8-10.54-10.75C326,142.83,316.2,141.64,306,142.78Z" style="fill:#95755a"/><path d="M325.81,182l.6,5.4a72.44,72.44,0,0,1-31.56,3.28l-.6-5.4A72.44,72.44,0,0,0,325.81,182Z" style="opacity:.1"/><polygon points="280.88 195.14 281.48 200.54 270.22 199.28 269.62 193.88 280.88 195.14" style="opacity:.1"/><polygon points="262.61 199.04 263.21 204.44 263.81 213.54 263.21 208.15 262.61 199.04" style="opacity:.1"/><polygon points="259.43 210.93 260.03 216.32 249.99 218.34 249.39 212.94 259.43 210.93" style="opacity:.1"/><rect width="23.39" height="5.43" x="211.55" y="230.5" transform="translate(-24.43 26.13) rotate(-6.35)" style="opacity:.1"/><polygon points="202.45 227.93 203.05 233.33 211.92 237.21 211.32 231.81 207.43 230.11 207.69 232.44 205.55 231.5 205.29 229.15 202.45 227.93" style="opacity:.15"/><polygon points="205.29 229.15 207.43 230.11 207.69 232.44 205.55 231.5 205.29 229.15" style="fill:#95755a"/><polygon points="205.29 229.15 207.43 230.11 207.69 232.44 205.55 231.5 205.29 229.15" style="fill:#fff;opacity:.30000000000000004"/><polygon points="205.29 229.15 205.55 231.5 276.91 178.98 274.76 178.01 205.29 229.15" style="fill:#95755a"/><polygon points="274.76 178.01 275.02 180.37 276.91 178.98 274.76 178.01" style="opacity:.15"/></g><g id="freepik--arm--inject-2"><path d="M201.56,152.61c5.92-10,11.5-9.91,17.44-11.34,5.26,7.19,6.28,21.53-4.34,36.93L203.3,196.83s17.09,7.71,22.9,6.18a18.59,18.59,0,0,0,4.92-1.67c3.5-1.47,4.85-1.55,8.17-2.8,2.6-1,3.69-2.29,4.18-1.81.64.61,1.35,2.37-.22,4.25a14.52,14.52,0,0,1-3.37,2.79,50.76,50.76,0,0,0,9.39-1.28c4.19-1,6.3-2.19,7.47-.56.74,1-.18,2.19-.58,3.15s-.15,2.51-.8,3.53c-.37.58-1.06.93-1.36,1.55s-.07,1.63-.31,2.41a3.48,3.48,0,0,1-1,1.4c-1.33,1.28-2.92,3.13-4.59,4a14.46,14.46,0,0,1-3.59.92,55.43,55.43,0,0,1-10.38.73c-6.45,0-10-1.16-16.25-2-11.66-1.52-25.5-5.18-31-7.3-6.16-2.38-6.34-7-5.81-12.34C182,188.65,196.88,160.46,201.56,152.61Z" style="fill:#ffbda7"/></g></g></g></g><g id="freepik--speech-bubble--inject-2"><g id="freepik--speech-bubble--inject-2"><g id="freepik--speech-bubble--inject-2"><path d="M322.77,60.67l-27.14,15.7c-.54.31-1,1.06-1,2.51v32.33a2.08,2.08,0,0,0,1,1.68l3.85,2.19a2.14,2.14,0,0,0,1.94,0l27.15-15.7a2.16,2.16,0,0,0,1-1.68V64.52a2.11,2.11,0,0,0-1-1.67l-3.85-2.19A2.19,2.19,0,0,0,322.77,60.67Z" style="fill:#37474f"/><path d="M301.43,115.07a2.24,2.24,0,0,1-1.94,0l-3.85-2.2a2.05,2.05,0,0,1-1-1.68V78.88a3.69,3.69,0,0,1,.34-1.8l5.75,3.31a1.8,1.8,0,0,0-.29,1v33.17C300.46,115.09,300.86,115.4,301.43,115.07Z" style="fill:#263238"/><path d="M292,102.65c-.61-.36-5.25-3-5.4-3.06a.9.9,0,0,1-.19-1.38l8.24-9.46,5.8,3.33-8.62,9.21A.92.92,0,0,0,292,102.65Z" style="fill:#37474f"/><path d="M328.58,64l-27.15,15.7a2.16,2.16,0,0,0-1,1.68V92.08l-8.62,9.21a.87.87,0,0,0,.55,1.49l8.07-.59h0v12.32c0,.62.44.87,1,.56l27.15-15.7a2.16,2.16,0,0,0,1-1.68V64.52C329.55,63.9,329.11,63.65,328.58,64Z" style="fill:#455a64"/></g><path id="freepik--Check--inject-2" d="M323.54,73.23a2.41,2.41,0,0,0-3.16,1.28L311.27,96.2l-2.17-2.11a2.41,2.41,0,0,0-3.36,3.46l4.7,4.57a2.39,2.39,0,0,0,1.68.68,2,2,0,0,0,.48,0,2.41,2.41,0,0,0,1.75-1.42l10.48-25A2.41,2.41,0,0,0,323.54,73.23Z" style="fill:#fafafa"/></g></g></svg>