<svg xmlns="http://www.w3.org/2000/svg" xmlns:svgjs="http://svgjs.dev/svgjs" xmlns:xlink="http://www.w3.org/1999/xlink" width="1500" height="939" version="1.1" viewBox="0 0 1500 939"><g transform="matrix(1,0,0,1,-0.9090909090909918,-1.5145161290323017)"><svg xmlns="http://www.w3.org/2000/svg" xmlns:xlink="http://www.w3.org/1999/xlink" width="1500" height="939" data-background-color="#e8e7d5" preserveAspectRatio="xMidYMid meet" viewBox="0 0 396 248"><g id="tight-bounds" transform="matrix(1,0,0,1,0.2400000000000091,0.4000000000000057)"><svg width="395.52" height="247.2" viewBox="0 0 395.52 247.2"><g><svg/></g><g><svg width="395.52" height="247.2" viewBox="0 0 395.52 247.2"><mask id="753a0c24-9517-43ce-a093-5cde3fe07a09"><rect width="640" height="400" fill="#fff"/><g transform="matrix(1,0,0,1,39.55199999999999,78.24164501278773)"><svg width="316.416" height="90.717" viewBox="0 0 316.416 90.717"><g><svg width="316.416" height="90.717" viewBox="0 0 316.416 90.717"><g><svg width="316.416" height="90.717" viewBox="0 0 316.416 90.717"><g><svg width="316.416" height="90.717" viewBox="0 0 316.416 90.717"><g id="SvgjsG5442"><svg id="SvgjsSvg5441" width="316.416" height="90.717" viewBox="0 0 316.416 90.717"><g><svg width="316.416" height="90.717" viewBox="0 0 316.416 90.717"><g transform="matrix(1,0,0,1,0,0)"><svg width="316.416" height="90.717" data-palette-color="#3d9970" viewBox="-3.7 -40.55 196.48 57.05"><path id="SvgjsPath5440" fill="#000" stroke="#000" stroke-linejoin="round" stroke-width="7" d="M13.1-34.05L21.5-9.05 30.2-34.05 26.3-34.05 26.3-35 33.95-35 33.95-34.05 31.6-34.05 19.55 0.5 15.35 0.5 2.6-34.05 0.3-34.05 0.3-35 16.65-35 16.65-34.05 13.1-34.05ZM41.35-27.25Q38.7-27.25 37.57-28.6 36.45-29.95 36.45-31.95 36.45-33.95 37.67-35.25 38.9-36.55 41.4-36.55 43.9-36.55 45.2-35.38 46.5-34.2 46.5-32.02 46.5-29.85 45.25-28.55 44-27.25 41.35-27.25ZM33.8-22.9L33.8-23.8 46.05-23.8 46.05-0.9 48.85-0.9 48.85 0 34 0 34-0.9 36.75-0.9 36.75-22.9 33.8-22.9ZM69.9-26.4L69.9-26.4 71.3-27.25Q71.59-28.8 70.09-28.8L70.09-28.8Q67.95-28.8 67.95-25.5L67.95-25.5Q67.95-24.2 68.3-22.5L68.3-22.5Q72.09-19.95 72.09-15.98 72.09-12 69.34-9.8 66.59-7.6 61.9-7.6L61.9-7.6Q59.95-7.6 57.85-8L57.85-8Q55.65-6.6 55.65-5.9 55.65-5.2 58.85-5.2L58.85-5.2 63.95-5.2Q75.3-5.2 75.3 2.95L75.3 2.95Q75.3 7.35 71.87 9.93 68.45 12.5 61.2 12.5L61.2 12.5Q48.85 12.5 48.85 7.15L48.85 7.15Q48.85 4.25 52.7 3.15L52.7 3.15 55.7 4.5Q55.3 5.95 55.3 7.25L55.3 7.25Q55.3 11.55 61.7 11.55L61.7 11.55Q65.59 11.55 67.7 10.1 69.8 8.65 69.8 6.5 69.8 4.35 68.52 3.63 67.25 2.9 63.45 2.9L63.45 2.9 58.6 2.9Q54.55 2.9 52.8 1.55 51.05 0.2 51.05-1.78 51.05-3.75 52.3-5.08 53.55-6.4 56.75-8.35L56.75-8.35Q50.95-10 50.95-15.95L50.95-15.95Q50.95-19.7 53.65-22 56.35-24.3 61.75-24.3L61.75-24.3Q65-24.3 67.3-23.05L67.3-23.05Q67-24.4 67-25.5L67-25.5Q67-28.3 68.5-29.55 70-30.8 71.84-30.8 73.7-30.8 74.82-29.83 75.95-28.85 75.95-27.15 75.95-25.45 75.05-24.63 74.15-23.8 72.87-23.8 71.59-23.8 70.77-24.48 69.95-25.15 69.9-26.4ZM59.3-17.05L59.3-17.05 59.3-14.35Q59.3-11 59.87-9.8 60.45-8.6 61.62-8.6 62.8-8.6 63.32-9.78 63.85-10.95 63.85-14.6L63.85-14.6 63.85-17.05Q63.85-20.95 63.35-22.18 62.85-23.4 61.67-23.4 60.5-23.4 59.9-22.13 59.3-20.85 59.3-17.05ZM77.74-22.9L75.69-22.9 75.69-23.8 90.19-23.8 90.19-22.9 87.49-22.9 92.94-6.3 98.74-22.9 95.39-22.9 95.39-23.8 102.44-23.8 102.44-22.9 99.94-22.9 90.59 4.05Q88.94 8.75 86.89 10.63 84.84 12.5 81.89 12.5 78.94 12.5 77.24 11.15 75.54 9.8 75.54 7.7 75.54 5.6 76.64 4.5 77.74 3.4 79.54 3.4L79.54 3.4Q83.69 3.4 83.69 6.85L83.69 6.85Q83.69 7.6 83.39 8.65L83.39 8.65 81.64 8.65Q81.24 9.8 81.54 10.55 81.84 11.3 82.89 11.3L82.89 11.3Q84.94 11.3 86.54 9.28 88.14 7.25 89.59 3.1L89.59 3.1 90.69 0 86.29 0 77.74-22.9ZM103.09-34.05L103.09-35 118.04-35Q124.99-35 128.47-33.13 131.94-31.25 131.94-26.8L131.94-26.8Q131.94-19.95 123.69-18.6L123.69-18.6 123.69-18.5Q133.69-17.25 133.69-9.8L133.69-9.8Q133.69-4.35 129.59-2.18 125.49 0 117.79 0L117.79 0 103.09 0 103.09-0.95 106.34-0.95 106.34-34.05 103.09-34.05ZM117.24-17.7L116.09-17.7 116.09-0.95 118.44-0.95Q121.19-0.95 122.29-2.85 123.39-4.75 123.39-8.45L123.39-8.45 123.39-11.1Q123.39-14.4 122.04-16.05 120.69-17.7 117.24-17.7L117.24-17.7ZM117.69-34.05L116.09-34.05 116.09-18.65 117.39-18.65Q119.99-18.65 121.02-20.23 122.04-21.8 122.04-25.05L122.04-25.05 122.04-27.4Q122.04-31.1 121.14-32.58 120.24-34.05 117.69-34.05L117.69-34.05ZM147.49-11.75L147.49-11.75 148.94-11.75 148.94-15.6Q148.94-20.35 148.41-21.98 147.89-23.6 146.39-23.6L146.39-23.6Q145.49-23.6 144.76-23.13 144.04-22.65 144.04-21.83 144.04-21 144.34-20.15L144.34-20.15 145.59-20.15Q145.99-19.1 145.99-17.63 145.99-16.15 144.74-15.08 143.49-14 141.59-14L141.59-14Q137.29-14 137.29-18.15L137.29-18.15Q137.29-24.3 147.74-24.3L147.74-24.3Q153.69-24.3 155.96-22.28 158.24-20.25 158.24-14.85L158.24-14.85 158.24-4.7Q158.24-2.1 159.69-2.1L159.69-2.1Q161.39-2.1 161.69-7.25L161.69-7.25 162.44-7.2Q162.24-2.8 160.79-1.15 159.34 0.5 156.04 0.5L156.04 0.5Q150.04 0.5 149.14-3.2L149.14-3.2Q148.49-1.3 147.19-0.4 145.89 0.5 143.39 0.5L143.39 0.5Q135.99 0.5 135.99-5.55L135.99-5.55Q135.99-9.1 138.81-10.43 141.64-11.75 147.49-11.75ZM145.49-5.6Q145.49-3 145.76-2.25 146.04-1.5 146.81-1.5 147.59-1.5 148.26-2.78 148.94-4.05 148.94-6.3L148.94-6.3 148.94-10.95 148.59-10.95Q145.49-10.95 145.49-6.4L145.49-6.4 145.49-5.6ZM182.74-26.4L182.74-26.4 184.13-27.25Q184.44-28.8 182.94-28.8L182.94-28.8Q180.78-28.8 180.78-25.5L180.78-25.5Q180.78-24.2 181.13-22.5L181.13-22.5Q184.94-19.95 184.94-15.98 184.94-12 182.19-9.8 179.44-7.6 174.74-7.6L174.74-7.6Q172.78-7.6 170.69-8L170.69-8Q168.49-6.6 168.49-5.9 168.49-5.2 171.69-5.2L171.69-5.2 176.78-5.2Q188.13-5.2 188.13 2.95L188.13 2.95Q188.13 7.35 184.71 9.93 181.28 12.5 174.03 12.5L174.03 12.5Q161.69 12.5 161.69 7.15L161.69 7.15Q161.69 4.25 165.53 3.15L165.53 3.15 168.53 4.5Q168.13 5.95 168.13 7.25L168.13 7.25Q168.13 11.55 174.53 11.55L174.53 11.55Q178.44 11.55 180.53 10.1 182.63 8.65 182.63 6.5 182.63 4.35 181.36 3.63 180.09 2.9 176.28 2.9L176.28 2.9 171.44 2.9Q167.38 2.9 165.63 1.55 163.88 0.2 163.88-1.78 163.88-3.75 165.13-5.08 166.38-6.4 169.59-8.35L169.59-8.35Q163.78-10 163.78-15.95L163.78-15.95Q163.78-19.7 166.49-22 169.19-24.3 174.59-24.3L174.59-24.3Q177.84-24.3 180.13-23.05L180.13-23.05Q179.84-24.4 179.84-25.5L179.84-25.5Q179.84-28.3 181.34-29.55 182.84-30.8 184.69-30.8 186.53-30.8 187.66-29.83 188.78-28.85 188.78-27.15 188.78-25.45 187.88-24.63 186.99-23.8 185.71-23.8 184.44-23.8 183.61-24.48 182.78-25.15 182.74-26.4ZM172.13-17.05L172.13-17.05 172.13-14.35Q172.13-11 172.71-9.8 173.28-8.6 174.46-8.6 175.63-8.6 176.16-9.78 176.69-10.95 176.69-14.6L176.69-14.6 176.69-17.05Q176.69-20.95 176.19-22.18 175.69-23.4 174.51-23.4 173.34-23.4 172.74-22.13 172.13-20.85 172.13-17.05Z" class="wordmark-text-0" opacity="1" transform="matrix(1,0,0,1,0,0)"/></svg></g></svg></g></svg></g></svg></g></svg></g></svg></g></svg></g></mask><g transform="matrix(1,0,0,1,39.55199999999999,78.24164501278773)"><svg width="316.416" height="90.717" viewBox="0 0 316.416 90.717"><g><svg width="316.416" height="90.717" viewBox="0 0 316.416 90.717"><g><svg width="316.416" height="90.717" viewBox="0 0 316.416 90.717"><g><svg width="316.416" height="90.717" viewBox="0 0 316.416 90.717"><g id="textblocktransform"><svg id="textblock" width="316.416" height="90.717" viewBox="0 0 316.416 90.717"><g><svg width="316.416" height="90.717" viewBox="0 0 316.416 90.717"><g transform="matrix(1,0,0,1,0,0)"><svg width="316.416" height="90.717" data-palette-color="#3d9970" viewBox="-3.7 -40.55 196.48 57.05"><path id="text-0" fill="#3d9970" d="M13.1-34.05L21.5-9.05 30.2-34.05 26.3-34.05 26.3-35 33.95-35 33.95-34.05 31.6-34.05 19.55 0.5 15.35 0.5 2.6-34.05 0.3-34.05 0.3-35 16.65-35 16.65-34.05 13.1-34.05ZM41.35-27.25Q38.7-27.25 37.57-28.6 36.45-29.95 36.45-31.95 36.45-33.95 37.67-35.25 38.9-36.55 41.4-36.55 43.9-36.55 45.2-35.38 46.5-34.2 46.5-32.02 46.5-29.85 45.25-28.55 44-27.25 41.35-27.25ZM33.8-22.9L33.8-23.8 46.05-23.8 46.05-0.9 48.85-0.9 48.85 0 34 0 34-0.9 36.75-0.9 36.75-22.9 33.8-22.9ZM69.9-26.4L69.9-26.4 71.3-27.25Q71.59-28.8 70.09-28.8L70.09-28.8Q67.95-28.8 67.95-25.5L67.95-25.5Q67.95-24.2 68.3-22.5L68.3-22.5Q72.09-19.95 72.09-15.98 72.09-12 69.34-9.8 66.59-7.6 61.9-7.6L61.9-7.6Q59.95-7.6 57.85-8L57.85-8Q55.65-6.6 55.65-5.9 55.65-5.2 58.85-5.2L58.85-5.2 63.95-5.2Q75.3-5.2 75.3 2.95L75.3 2.95Q75.3 7.35 71.87 9.93 68.45 12.5 61.2 12.5L61.2 12.5Q48.85 12.5 48.85 7.15L48.85 7.15Q48.85 4.25 52.7 3.15L52.7 3.15 55.7 4.5Q55.3 5.95 55.3 7.25L55.3 7.25Q55.3 11.55 61.7 11.55L61.7 11.55Q65.59 11.55 67.7 10.1 69.8 8.65 69.8 6.5 69.8 4.35 68.52 3.63 67.25 2.9 63.45 2.9L63.45 2.9 58.6 2.9Q54.55 2.9 52.8 1.55 51.05 0.2 51.05-1.78 51.05-3.75 52.3-5.08 53.55-6.4 56.75-8.35L56.75-8.35Q50.95-10 50.95-15.95L50.95-15.95Q50.95-19.7 53.65-22 56.35-24.3 61.75-24.3L61.75-24.3Q65-24.3 67.3-23.05L67.3-23.05Q67-24.4 67-25.5L67-25.5Q67-28.3 68.5-29.55 70-30.8 71.84-30.8 73.7-30.8 74.82-29.83 75.95-28.85 75.95-27.15 75.95-25.45 75.05-24.63 74.15-23.8 72.87-23.8 71.59-23.8 70.77-24.48 69.95-25.15 69.9-26.4ZM59.3-17.05L59.3-17.05 59.3-14.35Q59.3-11 59.87-9.8 60.45-8.6 61.62-8.6 62.8-8.6 63.32-9.78 63.85-10.95 63.85-14.6L63.85-14.6 63.85-17.05Q63.85-20.95 63.35-22.18 62.85-23.4 61.67-23.4 60.5-23.4 59.9-22.13 59.3-20.85 59.3-17.05ZM77.74-22.9L75.69-22.9 75.69-23.8 90.19-23.8 90.19-22.9 87.49-22.9 92.94-6.3 98.74-22.9 95.39-22.9 95.39-23.8 102.44-23.8 102.44-22.9 99.94-22.9 90.59 4.05Q88.94 8.75 86.89 10.63 84.84 12.5 81.89 12.5 78.94 12.5 77.24 11.15 75.54 9.8 75.54 7.7 75.54 5.6 76.64 4.5 77.74 3.4 79.54 3.4L79.54 3.4Q83.69 3.4 83.69 6.85L83.69 6.85Q83.69 7.6 83.39 8.65L83.39 8.65 81.64 8.65Q81.24 9.8 81.54 10.55 81.84 11.3 82.89 11.3L82.89 11.3Q84.94 11.3 86.54 9.28 88.14 7.25 89.59 3.1L89.59 3.1 90.69 0 86.29 0 77.74-22.9ZM103.09-34.05L103.09-35 118.04-35Q124.99-35 128.47-33.13 131.94-31.25 131.94-26.8L131.94-26.8Q131.94-19.95 123.69-18.6L123.69-18.6 123.69-18.5Q133.69-17.25 133.69-9.8L133.69-9.8Q133.69-4.35 129.59-2.18 125.49 0 117.79 0L117.79 0 103.09 0 103.09-0.95 106.34-0.95 106.34-34.05 103.09-34.05ZM117.24-17.7L116.09-17.7 116.09-0.95 118.44-0.95Q121.19-0.95 122.29-2.85 123.39-4.75 123.39-8.45L123.39-8.45 123.39-11.1Q123.39-14.4 122.04-16.05 120.69-17.7 117.24-17.7L117.24-17.7ZM117.69-34.05L116.09-34.05 116.09-18.65 117.39-18.65Q119.99-18.65 121.02-20.23 122.04-21.8 122.04-25.05L122.04-25.05 122.04-27.4Q122.04-31.1 121.14-32.58 120.24-34.05 117.69-34.05L117.69-34.05ZM147.49-11.75L147.49-11.75 148.94-11.75 148.94-15.6Q148.94-20.35 148.41-21.98 147.89-23.6 146.39-23.6L146.39-23.6Q145.49-23.6 144.76-23.13 144.04-22.65 144.04-21.83 144.04-21 144.34-20.15L144.34-20.15 145.59-20.15Q145.99-19.1 145.99-17.63 145.99-16.15 144.74-15.08 143.49-14 141.59-14L141.59-14Q137.29-14 137.29-18.15L137.29-18.15Q137.29-24.3 147.74-24.3L147.74-24.3Q153.69-24.3 155.96-22.28 158.24-20.25 158.24-14.85L158.24-14.85 158.24-4.7Q158.24-2.1 159.69-2.1L159.69-2.1Q161.39-2.1 161.69-7.25L161.69-7.25 162.44-7.2Q162.24-2.8 160.79-1.15 159.34 0.5 156.04 0.5L156.04 0.5Q150.04 0.5 149.14-3.2L149.14-3.2Q148.49-1.3 147.19-0.4 145.89 0.5 143.39 0.5L143.39 0.5Q135.99 0.5 135.99-5.55L135.99-5.55Q135.99-9.1 138.81-10.43 141.64-11.75 147.49-11.75ZM145.49-5.6Q145.49-3 145.76-2.25 146.04-1.5 146.81-1.5 147.59-1.5 148.26-2.78 148.94-4.05 148.94-6.3L148.94-6.3 148.94-10.95 148.59-10.95Q145.49-10.95 145.49-6.4L145.49-6.4 145.49-5.6ZM182.74-26.4L182.74-26.4 184.13-27.25Q184.44-28.8 182.94-28.8L182.94-28.8Q180.78-28.8 180.78-25.5L180.78-25.5Q180.78-24.2 181.13-22.5L181.13-22.5Q184.94-19.95 184.94-15.98 184.94-12 182.19-9.8 179.44-7.6 174.74-7.6L174.74-7.6Q172.78-7.6 170.69-8L170.69-8Q168.49-6.6 168.49-5.9 168.49-5.2 171.69-5.2L171.69-5.2 176.78-5.2Q188.13-5.2 188.13 2.95L188.13 2.95Q188.13 7.35 184.71 9.93 181.28 12.5 174.03 12.5L174.03 12.5Q161.69 12.5 161.69 7.15L161.69 7.15Q161.69 4.25 165.53 3.15L165.53 3.15 168.53 4.5Q168.13 5.95 168.13 7.25L168.13 7.25Q168.13 11.55 174.53 11.55L174.53 11.55Q178.44 11.55 180.53 10.1 182.63 8.65 182.63 6.5 182.63 4.35 181.36 3.63 180.09 2.9 176.28 2.9L176.28 2.9 171.44 2.9Q167.38 2.9 165.63 1.55 163.88 0.2 163.88-1.78 163.88-3.75 165.13-5.08 166.38-6.4 169.59-8.35L169.59-8.35Q163.78-10 163.78-15.95L163.78-15.95Q163.78-19.7 166.49-22 169.19-24.3 174.59-24.3L174.59-24.3Q177.84-24.3 180.13-23.05L180.13-23.05Q179.84-24.4 179.84-25.5L179.84-25.5Q179.84-28.3 181.34-29.55 182.84-30.8 184.69-30.8 186.53-30.8 187.66-29.83 188.78-28.85 188.78-27.15 188.78-25.45 187.88-24.63 186.99-23.8 185.71-23.8 184.44-23.8 183.61-24.48 182.78-25.15 182.74-26.4ZM172.13-17.05L172.13-17.05 172.13-14.35Q172.13-11 172.71-9.8 173.28-8.6 174.46-8.6 175.63-8.6 176.16-9.78 176.69-10.95 176.69-14.6L176.69-14.6 176.69-17.05Q176.69-20.95 176.19-22.18 175.69-23.4 174.51-23.4 173.34-23.4 172.74-22.13 172.13-20.85 172.13-17.05Z" class="wordmark-text-0" data-fill-palette-color="primary" opacity="1" transform="matrix(1,0,0,1,0,0)"/></svg></g></svg></g></svg></g></svg></g></svg></g></svg></g></svg></g><g mask="url(#753a0c24-9517-43ce-a093-5cde3fe07a09)"><g transform="matrix(2.502182918194964, 0, 0, 2.502182918194964, 100.7623095506275, 1.0000000000000142)"><svg xmlns="http://www.w3.org/2000/svg" id="none" width="77.53" height="97.994" x="0" y="0" class="icon-none" data-fill-palette-color="accent" data-name="Layer 1" viewBox="11.25 1.006 77.53 97.994"><path fill="#2d4031" d="M19.54 3.86A1.49 1.49 0 0 1 20.78 2.15C58.88-3.22 61.1 11.56 59.21 20.51A41.4 41.4 0 0 0 43.4 15.57H43.31A0.34 0.34 0 0 0 43.17 16.18L52.47 23 57.16 26.46A30 30 0 0 1 62.04 31.16 20 20 0 0 1 66.1 26.22 14.2 14.2 0 0 1 64.1 22.22 11.9 11.9 0 0 1 63.53 18.71C63.53 13.36 67.97 7.35 87.78 7.11A1 1 0 0 1 88.78 8.11C88.48 33.68 78.55 33.65 72.85 31.51A27.5 27.5 0 0 0 77.68 21.61 0.2 0.2 0 0 0 77.68 21.55 0.23 0.23 0 0 0 77.29 21.39L71.62 27A16.26 16.26 0 0 0 66.77 37.48V39A30 30 0 0 1 68.11 43.14H58A26.45 26.45 0 0 0 53.62 31 21.6 21.6 0 0 1 47.4 35.64 17.8 17.8 0 0 1 42.31 37.29C34.36 38.51 24.4 33.27 19.54 3.86M15.69 45.91H20.69L28.69 73.73A9 9 0 0 0 37.34 80.22H65.52A9 9 0 0 0 74.17 73.71L79.36 55.71A5.62 5.62 0 0 0 74 48.52H31.43L29 41.19A6 6 0 0 0 23.29 37H15.81A4.51 4.51 0 0 0 11.35 40.52 4.45 4.45 0 0 0 15.69 45.91M33.52 93.06A5.94 5.94 0 1 0 39.46 87.12 5.94 5.94 0 0 0 33.52 93.06M57.52 93.06A5.94 5.94 0 1 0 63.46 87.12 5.94 5.94 0 0 0 57.53 93.06Z" data-fill-palette-color="accent"/></svg></g></g></svg></g></svg><rect width="395.52" height="247.2" fill="none" stroke="none" visibility="hidden"/></g></svg></g></svg>