<svg xmlns="http://www.w3.org/2000/svg" width="546" height="455" fill="none" viewBox="0 0 546 455"><g clip-path="url(#clip0_7_22)"><path fill="#E6E6E6" d="M224.977 107.069H222.498V39.251C222.498 34.0965 221.481 28.9924 219.506 24.2303C217.53 19.4681 214.635 15.1411 210.985 11.4963C207.335 7.85149 203.002 4.96028 198.233 2.98774C193.464 1.0152 188.353 -4.66436e-05 183.191 -3.05174e-05H39.3067C34.1449 -4.66436e-05 29.0336 1.0152 24.2647 2.98774C19.4958 4.96029 15.1626 7.8515 11.5127 11.4963C7.86269 15.1411 4.96737 19.4681 2.99202 24.2303C1.01668 28.9924 -8.07452e-06 34.0965 0 39.251V411.304C-4.8447e-06 416.458 1.01669 421.562 2.99203 426.324C4.96738 431.086 7.8627 435.413 11.5127 439.058C15.1626 442.703 19.4958 445.594 24.2647 447.567C29.0336 449.539 34.1449 450.555 39.3067 450.555H183.191C188.353 450.555 193.464 449.539 198.233 447.567C203.002 445.594 207.335 442.703 210.985 439.058C214.635 435.413 217.53 431.086 219.506 426.324C221.481 421.562 222.498 416.458 222.498 411.304V155.342H224.977V107.069Z"/><path fill="#fff" d="M184.777 10.2118H165.995C166.859 12.3263 167.189 14.6206 166.955 16.8923C166.722 19.1641 165.933 21.3437 164.657 23.2392C163.381 25.1346 161.659 26.6877 159.64 27.7616C157.622 28.8355 155.37 29.3973 153.083 29.3975H70.6538C68.3669 29.3973 66.1151 28.8355 64.0968 27.7616C62.0785 26.6877 60.3557 25.1346 59.08 23.2392C57.8044 21.3437 57.0151 19.1641 56.7818 16.8923C56.5484 14.6206 56.8781 12.3263 57.7418 10.2118H40.1997C36.345 10.2118 32.5279 10.9699 28.9666 12.443C25.4052 13.9161 22.1693 16.0752 19.4435 18.7971C16.7178 21.519 14.5556 24.7503 13.0804 28.3066C11.6052 31.8629 10.846 35.6746 10.846 39.5239V411.031C10.846 414.88 11.6052 418.692 13.0804 422.248C14.5556 425.804 16.7178 429.036 19.4435 431.757C22.1693 434.479 25.4052 436.638 28.9665 438.112C32.5279 439.585 36.345 440.343 40.1997 440.343H184.777C188.632 440.343 192.449 439.585 196.01 438.112C199.572 436.638 202.807 434.479 205.533 431.757C208.259 429.036 210.421 425.804 211.896 422.248C213.371 418.692 214.131 414.88 214.131 411.031V39.5239C214.131 35.6746 213.371 31.8629 211.896 28.3066C210.421 24.7503 208.259 21.519 205.533 18.7971C202.807 16.0752 199.571 13.9161 196.01 12.443C192.449 10.9699 188.632 10.2118 184.777 10.2118Z"/><path fill="#E6E6E6" d="M69.8932 85.735H61.2609C60.9574 85.735 60.6663 85.8554 60.4517 86.0698C60.237 86.2841 60.1165 86.5748 60.1165 86.8779V90.6615C60.1165 90.9646 60.237 91.2552 60.4517 91.4696C60.6663 91.6839 60.9574 91.8043 61.2609 91.8043H62.6914V97.4734H68.4627V91.8043H69.8932C70.1967 91.8043 70.4878 91.6839 70.7024 91.4696C70.9171 91.2552 71.0376 90.9646 71.0376 90.6615V86.8779C71.0376 86.5748 70.9171 86.2841 70.7024 86.0698C70.4878 85.8554 70.1967 85.735 69.8932 85.735Z"/><path fill="#E6E6E6" d="M78.5393 120.362C73.2526 112.638 70.55 103.44 70.8185 94.0874C70.8234 93.8716 70.7532 93.6608 70.62 93.4908C70.4869 93.3208 70.2988 93.202 70.0879 93.1547V91.5198H60.9711V93.132H60.8455C60.5974 93.1323 60.3596 93.231 60.1844 93.4064C60.0092 93.5819 59.911 93.8196 59.9113 94.0673C59.9113 94.09 59.9122 94.1127 59.9138 94.1353C60.6321 104.133 58.2068 113.099 52.6379 121.033C52.3174 121.489 52.1537 122.036 52.1713 122.593L53.1682 153.386C53.1922 154.073 53.4808 154.724 53.974 155.203C54.4671 155.682 55.1266 155.953 55.8148 155.959H76.4356C77.1317 155.953 77.798 155.676 78.2927 155.187C78.7873 154.698 79.0712 154.035 79.0838 153.34L79.468 123.443C79.4794 122.346 79.1554 121.271 78.5393 120.362Z"/><path fill="#fff" d="M75.275 130.591H57.3261C57.0604 130.591 56.7979 130.648 56.5565 130.759C56.3151 130.87 56.1005 131.031 55.9275 131.233C55.7545 131.434 55.6272 131.67 55.5542 131.926C55.4812 132.181 55.4644 132.449 55.5048 132.711L58.2171 150.316H73.7917L77.0862 132.77C77.1361 132.504 77.1267 132.231 77.0588 131.969C76.9908 131.707 76.8659 131.464 76.693 131.256C76.5201 131.048 76.3034 130.88 76.0583 130.765C75.8132 130.65 75.5457 130.591 75.275 130.591Z"/><path fill="#E6E6E6" d="M165.987 177.978H157.355C157.051 177.978 156.76 178.099 156.545 178.313C156.331 178.527 156.21 178.818 156.21 179.121V182.905C156.21 183.208 156.331 183.499 156.545 183.713C156.76 183.927 157.051 184.048 157.355 184.048H158.785V189.717H164.556V184.048H165.987C166.29 184.048 166.582 183.927 166.796 183.713C167.011 183.499 167.131 183.208 167.131 182.905V179.121C167.131 178.818 167.011 178.527 166.796 178.313C166.582 178.099 166.29 177.978 165.987 177.978Z"/><path fill="#E6E6E6" d="M174.633 212.606C169.346 204.881 166.644 195.683 166.912 186.331C166.917 186.115 166.847 185.904 166.714 185.734C166.581 185.564 166.393 185.445 166.182 185.398V183.763H157.065V185.375H156.939C156.816 185.375 156.695 185.4 156.581 185.447C156.468 185.494 156.365 185.563 156.278 185.65C156.191 185.737 156.123 185.84 156.076 185.953C156.029 186.066 156.005 186.188 156.005 186.311C156.005 186.333 156.006 186.356 156.008 186.379C156.726 196.376 154.3 205.342 148.732 213.276C148.411 213.732 148.247 214.28 148.265 214.836L149.262 245.629C149.286 246.316 149.575 246.967 150.068 247.446C150.561 247.926 151.22 248.196 151.909 248.202H172.529C173.225 248.196 173.892 247.919 174.386 247.43C174.881 246.941 175.165 246.279 175.178 245.584L175.562 215.687C175.573 214.589 175.249 213.514 174.633 212.606Z"/><path fill="#fff" d="M171.369 222.834H153.42C153.154 222.834 152.892 222.891 152.65 223.002C152.409 223.113 152.194 223.275 152.021 223.476C151.848 223.677 151.721 223.914 151.648 224.169C151.575 224.424 151.558 224.692 151.599 224.954L154.311 242.559H169.885L173.18 225.013C173.23 224.748 173.22 224.474 173.152 224.212C173.085 223.951 172.96 223.707 172.787 223.499C172.614 223.291 172.397 223.124 172.152 223.009C171.907 222.894 171.639 222.834 171.369 222.834Z"/><path fill="#E6E6E6" d="M57.7573 308.383H53.6627C53.5187 308.383 53.3806 308.44 53.2788 308.542C53.177 308.644 53.1198 308.782 53.1198 308.925V310.72C53.1198 310.864 53.177 311.002 53.2788 311.103C53.3806 311.205 53.5187 311.262 53.6627 311.262H54.3412V313.951H57.0788V311.262H57.7573C57.9013 311.262 58.0394 311.205 58.1412 311.103C58.243 311.002 58.3002 310.864 58.3002 310.72V308.925C58.3002 308.782 58.243 308.644 58.1412 308.542C58.0394 308.44 57.9013 308.383 57.7573 308.383Z"/><path fill="#E6E6E6" d="M61.8586 324.809C59.3509 321.144 58.0689 316.782 58.1963 312.345C58.1986 312.243 58.1653 312.143 58.1021 312.062C58.039 311.981 57.9498 311.925 57.8497 311.903V311.127H53.5252V311.892H53.4656C53.4074 311.892 53.3497 311.904 53.2959 311.926C53.2421 311.948 53.1932 311.981 53.152 312.022C53.1109 312.063 53.0783 312.112 53.056 312.166C53.0338 312.22 53.0224 312.277 53.0225 312.336C53.0225 312.346 53.0229 312.357 53.0237 312.368C53.4228 316.895 52.1998 321.416 49.5724 325.127C49.4204 325.343 49.3427 325.603 49.3511 325.867L49.8239 340.473C49.8353 340.799 49.9722 341.108 50.2061 341.335C50.44 341.562 50.7529 341.691 51.0793 341.693H60.8607C61.1909 341.691 61.507 341.559 61.7416 341.328C61.9762 341.096 62.1109 340.781 62.1169 340.452L62.2991 326.27C62.3045 325.749 62.1508 325.24 61.8586 324.809Z"/><path fill="#fff" d="M60.4509 330.178H51.1178V334.838H60.4509V330.178Z"/><path fill="#E6E6E6" d="M76.8182 308.383H72.7235C72.5795 308.383 72.4414 308.44 72.3396 308.542C72.2378 308.644 72.1806 308.782 72.1806 308.925V310.72C72.1806 310.864 72.2378 311.002 72.3396 311.103C72.4414 311.205 72.5795 311.262 72.7235 311.262H73.402V313.951H76.1396V311.262H76.8182C76.9621 311.262 77.1002 311.205 77.202 311.103C77.3038 311.002 77.361 310.864 77.361 310.72V308.925C77.361 308.782 77.3038 308.644 77.202 308.542C77.1002 308.44 76.9621 308.383 76.8182 308.383Z"/><path fill="#E6E6E6" d="M80.9194 324.809C78.4117 321.144 77.1297 316.782 77.2571 312.345C77.2594 312.243 77.2261 312.143 77.1629 312.062C77.0998 311.981 77.0106 311.925 76.9106 311.903V311.127H72.586V311.892H72.5264C72.4682 311.892 72.4105 311.904 72.3567 311.926C72.3029 311.948 72.254 311.981 72.2129 312.022C72.1717 312.063 72.1391 312.112 72.1168 312.166C72.0946 312.22 72.0832 312.277 72.0833 312.336C72.0833 312.346 72.0837 312.357 72.0845 312.368C72.4837 316.895 71.2606 321.416 68.6332 325.127C68.4812 325.343 68.4035 325.603 68.4119 325.867L68.8847 340.473C68.8961 340.799 69.033 341.108 69.2669 341.335C69.5009 341.562 69.8137 341.691 70.1401 341.693H79.9215C80.2517 341.691 80.5678 341.559 80.8024 341.328C81.0371 341.096 81.1717 340.781 81.1777 340.452L81.3599 326.27C81.3653 325.749 81.2117 325.24 80.9194 324.809Z"/><path fill="#fff" d="M79.5117 330.178H70.1786V334.838H79.5117V330.178Z"/><path fill="#E6E6E6" d="M95.879 308.383H91.7843C91.6403 308.383 91.5022 308.44 91.4004 308.542C91.2986 308.644 91.2414 308.782 91.2414 308.925V310.72C91.2414 310.864 91.2986 311.002 91.4004 311.103C91.5022 311.205 91.6403 311.262 91.7843 311.262H92.4628V313.951H95.2004V311.262H95.879C96.0229 311.262 96.161 311.205 96.2628 311.103C96.3646 311.002 96.4218 310.864 96.4218 310.72V308.925C96.4218 308.782 96.3646 308.644 96.2628 308.542C96.161 308.44 96.0229 308.383 95.879 308.383Z"/><path fill="#E6E6E6" d="M99.9802 324.809C97.4725 321.144 96.1905 316.782 96.3179 312.345C96.3202 312.243 96.2869 312.143 96.2238 312.062C96.1606 311.981 96.0714 311.925 95.9714 311.903V311.127H91.6469V311.892H91.5873C91.529 311.892 91.4713 311.904 91.4175 311.926C91.3637 311.948 91.3148 311.981 91.2737 312.022C91.2325 312.063 91.1999 312.112 91.1777 312.166C91.1554 312.22 91.144 312.277 91.1441 312.336C91.1441 312.346 91.1445 312.357 91.1453 312.368C91.5445 316.895 90.3214 321.416 87.694 325.127C87.542 325.343 87.4644 325.603 87.4727 325.867L87.9455 340.473C87.9569 340.799 88.0938 341.108 88.3277 341.335C88.5617 341.562 88.8745 341.691 89.2009 341.693H98.9824C99.3125 341.691 99.6286 341.559 99.8632 341.328C100.098 341.096 100.233 340.781 100.239 340.452L100.421 326.27C100.426 325.749 100.272 325.24 99.9802 324.809Z"/><path fill="#fff" d="M98.5725 330.178H89.2394V334.838H98.5725V330.178Z"/><path fill="#E6E6E6" d="M150.991 272.698H142.358C142.208 272.698 142.059 272.727 141.92 272.785C141.782 272.842 141.655 272.926 141.549 273.033C141.443 273.139 141.359 273.265 141.301 273.403C141.244 273.542 141.214 273.691 141.214 273.841V277.624C141.214 277.927 141.335 278.218 141.549 278.432C141.764 278.647 142.055 278.767 142.358 278.767H143.789V284.436H149.56V278.767H150.991C151.294 278.767 151.585 278.647 151.8 278.432C152.015 278.218 152.135 277.927 152.135 277.624V273.841C152.135 273.691 152.106 273.542 152.048 273.403C151.99 273.265 151.906 273.139 151.8 273.033C151.694 272.926 151.567 272.842 151.429 272.785C151.29 272.727 151.141 272.698 150.991 272.698Z"/><path fill="#E6E6E6" d="M159.637 307.325C154.35 299.6 151.648 290.403 151.916 281.05C151.921 280.835 151.851 280.624 151.718 280.454C151.584 280.284 151.396 280.165 151.185 280.118V278.483H142.069V280.095H141.943C141.82 280.095 141.699 280.119 141.585 280.166C141.472 280.214 141.369 280.282 141.282 280.369C141.195 280.456 141.126 280.559 141.08 280.673C141.033 280.786 141.009 280.908 141.009 281.03C141.009 281.053 141.01 281.076 141.011 281.098C141.73 291.096 139.304 300.062 133.735 307.996C133.415 308.452 133.251 308.999 133.269 309.556L134.266 340.349C134.29 341.036 134.578 341.687 135.071 342.166C135.565 342.645 136.224 342.916 136.912 342.921H157.533C158.229 342.916 158.896 342.639 159.39 342.15C159.885 341.661 160.169 340.998 160.181 340.303L160.566 310.406C160.577 309.309 160.253 308.234 159.637 307.325Z"/><path fill="#fff" d="M156.373 317.554H138.424C138.158 317.554 137.895 317.611 137.654 317.722C137.413 317.833 137.198 317.994 137.025 318.196C136.852 318.397 136.725 318.633 136.652 318.889C136.579 319.144 136.562 319.411 136.602 319.674L139.315 337.279H154.889L158.184 319.733C158.234 319.467 158.224 319.194 158.156 318.932C158.088 318.67 157.963 318.427 157.791 318.219C157.618 318.011 157.401 317.843 157.156 317.728C156.911 317.613 156.643 317.554 156.373 317.554Z"/><path fill="#E6E6E6" d="M155.703 159.923H104.247C107.844 140.5 107.017 117.046 104.247 91.8236H155.703C153.007 117.046 152.201 140.5 155.703 159.923Z"/><path fill="#fff" d="M130.285 136.398C137.133 136.398 142.684 130.854 142.684 124.016C142.684 117.178 137.133 111.634 130.285 111.634C123.437 111.634 117.886 117.178 117.886 124.016C117.886 130.854 123.437 136.398 130.285 136.398Z"/><path fill="#E6E6E6" d="M108.586 250.309H57.1297C60.7273 230.886 59.8996 207.432 57.1297 182.21H108.586C105.89 207.432 105.084 230.886 108.586 250.309Z"/><path fill="#fff" d="M83.168 226.784C90.0159 226.784 95.5672 221.24 95.5672 214.402C95.5672 207.564 90.0159 202.02 83.168 202.02C76.3201 202.02 70.7688 207.564 70.7688 214.402C70.7688 221.24 76.3201 226.784 83.168 226.784Z"/><path fill="#E6E6E6" d="M184.841 164.256H133.385C136.982 144.833 136.155 121.38 133.385 96.1572H184.841C182.145 121.38 181.34 144.834 184.841 164.256Z"/><path fill="#fff" d="M159.423 140.731C166.271 140.731 171.822 135.188 171.822 128.349C171.822 121.511 166.271 115.968 159.423 115.968C152.575 115.968 147.024 121.511 147.024 128.349C147.024 135.188 152.575 140.731 159.423 140.731Z"/><path fill="#E6E6E6" d="M184.841 161.161H133.385C136.982 141.738 136.155 118.285 133.385 93.0618H184.841C182.145 118.285 181.34 141.738 184.841 161.161Z"/><path fill="#fff" d="M159.423 137.636C166.271 137.636 171.822 132.092 171.822 125.254C171.822 118.416 166.271 112.872 159.423 112.872C152.575 112.872 147.024 118.416 147.024 125.254C147.024 132.092 152.575 137.636 159.423 137.636Z"/><path fill="#E6E6E6" d="M184.841 164.256H133.385C136.982 144.833 136.155 121.38 133.385 96.1572H184.841C182.145 121.38 181.34 144.834 184.841 164.256Z"/><path fill="#fff" d="M159.423 140.731C166.271 140.731 171.822 135.188 171.822 128.349C171.822 121.511 166.271 115.968 159.423 115.968C152.575 115.968 147.024 121.511 147.024 128.349C147.024 135.188 152.575 140.731 159.423 140.731Z"/><path fill="#E6E6E6" d="M196.621 156.208H27.9916V174.781H196.621V156.208Z"/><path fill="#E6E6E6" d="M196.621 248.451H27.9916V267.024H196.621V248.451Z"/><path fill="#E6E6E6" d="M196.621 340.695H27.9916V359.267H196.621V340.695Z"/><path fill="#F9A826" d="M489.958 416.042L447.947 386.371C462.116 372.588 475.003 352.963 487.327 330.773L529.337 360.445C512.551 379.482 498.33 398.166 489.958 416.042Z"/><path fill="#fff" d="M489.969 384.452C496.817 384.452 502.369 378.908 502.369 372.07C502.369 365.232 496.817 359.688 489.969 359.688C483.122 359.688 477.57 365.232 477.57 372.07C477.57 378.908 483.122 384.452 489.969 384.452Z"/><path fill="#E6E6E6" d="M287.303 280.644H282.692C282.53 280.644 282.374 280.708 282.259 280.823C282.145 280.937 282.08 281.092 282.08 281.254V283.276C282.08 283.356 282.096 283.435 282.127 283.509C282.158 283.583 282.203 283.651 282.259 283.707C282.316 283.764 282.384 283.809 282.458 283.84C282.532 283.87 282.611 283.886 282.692 283.886H283.456V286.915H286.539V283.886H287.303C287.465 283.886 287.621 283.822 287.736 283.707C287.85 283.593 287.915 283.437 287.915 283.276V281.254C287.915 281.092 287.85 280.937 287.736 280.823C287.621 280.708 287.465 280.644 287.303 280.644Z"/><path fill="#F9A826" d="M291.922 299.142C289.098 295.015 287.654 290.102 287.798 285.106C287.8 284.99 287.763 284.878 287.692 284.787C287.62 284.696 287.52 284.633 287.407 284.607V283.734H282.537V284.595H282.47C282.404 284.595 282.339 284.608 282.279 284.634C282.218 284.659 282.163 284.696 282.117 284.742C282.07 284.788 282.034 284.843 282.009 284.904C281.984 284.965 281.971 285.029 281.971 285.095C281.971 285.107 281.971 285.119 281.972 285.131C282.422 290.23 281.044 295.322 278.085 299.5C277.914 299.744 277.827 300.036 277.836 300.334L278.369 316.784C278.381 317.151 278.536 317.498 278.799 317.755C279.062 318.011 279.415 318.155 279.782 318.158H290.798C291.17 318.155 291.526 318.007 291.79 317.746C292.055 317.485 292.206 317.131 292.213 316.759L292.418 300.788C292.424 300.202 292.251 299.628 291.922 299.142Z"/><path fill="#000" d="M286.342 281.302C286.342 281.652 286.203 281.987 285.956 282.234C285.708 282.481 285.373 282.62 285.023 282.62C284.673 282.62 284.338 282.481 284.09 282.234C283.843 281.987 283.704 281.652 283.704 281.302" opacity=".2"/><path fill="#fff" d="M289.777 302.312H280.477V308.502H289.777V302.312Z"/><path fill="#E6E6E6" d="M433.235 344.907H424.603C424.299 344.907 424.008 345.027 423.794 345.241C423.579 345.456 423.458 345.746 423.458 346.05V349.833C423.458 350.136 423.579 350.427 423.794 350.641C424.008 350.856 424.299 350.976 424.603 350.976H426.033V356.645H431.805V350.976H433.235C433.539 350.976 433.83 350.856 434.044 350.641C434.259 350.427 434.38 350.136 434.38 349.833V346.05C434.38 345.746 434.259 345.456 434.044 345.241C433.83 345.027 433.539 344.907 433.235 344.907Z"/><path fill="#F9A826" d="M441.881 379.534C436.595 371.809 433.892 362.612 434.161 353.259C434.166 353.043 434.095 352.832 433.962 352.662C433.829 352.492 433.641 352.374 433.43 352.326V350.692H424.313V352.304H424.188C424.065 352.304 423.943 352.328 423.83 352.375C423.716 352.422 423.613 352.491 423.527 352.578C423.44 352.665 423.371 352.768 423.324 352.881C423.277 352.995 423.253 353.116 423.253 353.239C423.253 353.262 423.254 353.284 423.256 353.307C423.974 363.305 421.549 372.271 415.98 380.205C415.66 380.661 415.496 381.208 415.513 381.765L416.51 412.557C416.534 413.244 416.823 413.895 417.316 414.375C417.809 414.854 418.469 415.125 419.157 415.13H439.778C440.474 415.125 441.14 414.848 441.635 414.359C442.129 413.87 442.413 413.207 442.426 412.512L442.81 382.615C442.822 381.518 442.498 380.443 441.881 379.534Z"/><path fill="#000" d="M431.436 346.14C431.436 346.793 431.176 347.421 430.713 347.883C430.249 348.345 429.621 348.605 428.967 348.605C428.312 348.605 427.684 348.345 427.221 347.883C426.758 347.421 426.497 346.793 426.497 346.14" opacity=".2"/><path fill="#fff" d="M438.617 389.763H420.668C420.403 389.763 420.14 389.82 419.899 389.931C419.657 390.041 419.443 390.203 419.27 390.404C419.097 390.606 418.969 390.842 418.896 391.097C418.823 391.352 418.806 391.62 418.847 391.882L421.559 409.488H437.134L440.428 391.942C440.478 391.676 440.469 391.403 440.401 391.141C440.333 390.879 440.208 390.636 440.035 390.428C439.862 390.219 439.645 390.052 439.4 389.937C439.155 389.822 438.888 389.763 438.617 389.763Z"/><path fill="#F9A826" d="M408.606 415.994H357.149C360.747 396.571 359.919 373.117 357.149 347.895H408.606C405.91 373.118 405.104 396.571 408.606 415.994Z"/><path fill="#fff" d="M383.188 392.469C390.036 392.469 395.587 386.925 395.587 380.087C395.587 373.249 390.036 367.705 383.188 367.705C376.34 367.705 370.788 373.249 370.788 380.087C370.788 386.925 376.34 392.469 383.188 392.469Z"/><path fill="#FFB8B8" d="M198.136 201.676L209.687 200.628L217.039 182.801L203.912 175.46L198.136 201.676Z"/><path fill="#FFB8B8" d="M304.149 250.617C304.533 249.66 304.684 248.626 304.59 247.6C304.495 246.574 304.158 245.585 303.605 244.714C303.052 243.844 302.301 243.117 301.412 242.593C300.523 242.07 299.522 241.765 298.491 241.704L280.556 240.636L277.915 249.405L296.379 254.468C297.922 254.891 299.566 254.733 301 254.022C302.433 253.312 303.554 252.1 304.149 250.617Z"/><path fill="#F9A826" d="M284.891 254.616L284.693 238.161L244.854 231.813L214.163 196.663C212.566 194.835 210.36 193.646 207.953 193.317C205.545 192.988 203.1 193.542 201.07 194.875C199.841 195.683 198.805 196.75 198.034 198.001C197.264 199.253 196.778 200.658 196.611 202.118C196.444 203.577 196.6 205.056 197.068 206.448C197.536 207.841 198.305 209.114 199.32 210.177L224.64 241.293L284.891 254.616Z"/><path fill="#2F2E41" d="M189.21 439.723H199.711L225.759 322.122L252.743 358.452L268.496 437.101H278.472L276.372 352.684L241.192 262.499H206.537C197.067 279.614 189.638 297.256 198.136 315.456L189.21 439.723Z"/><path fill="#2F2E41" d="M262.058 446.866C261.942 447.237 261.906 447.628 261.954 448.014C262.001 448.4 262.13 448.771 262.332 449.104C262.534 449.436 262.805 449.721 263.126 449.941C263.447 450.16 263.812 450.309 264.195 450.377L289.892 454.931C290.908 455.116 291.956 454.924 292.84 454.391C293.723 453.858 294.381 453.021 294.689 452.037C294.988 451.097 294.946 450.081 294.571 449.169C294.195 448.256 293.509 447.505 292.634 447.048C286.984 444.151 282.121 439.929 278.462 434.744C275.638 437.37 272.481 437.123 269.129 435.188L265.574 435.632L262.058 446.866Z"/><path fill="#2F2E41" d="M184.347 446.866C184.231 447.237 184.196 447.628 184.243 448.014C184.29 448.4 184.419 448.771 184.621 449.104C184.823 449.436 185.094 449.721 185.415 449.941C185.737 450.16 186.101 450.309 186.484 450.377L212.182 454.931C213.197 455.116 214.245 454.924 215.129 454.391C216.012 453.858 216.67 453.021 216.978 452.037C217.277 451.097 217.236 450.081 216.86 449.169C216.484 448.256 215.798 447.505 214.923 447.048C209.273 444.151 204.41 439.929 200.751 434.744C197.927 437.37 194.77 437.123 191.418 435.188L187.863 435.632L184.347 446.866Z"/><path fill="#FFB8B8" d="M217.301 189.355C225.421 189.355 232.003 182.782 232.003 174.674C232.003 166.565 225.421 159.992 217.301 159.992C209.181 159.992 202.599 166.565 202.599 174.674C202.599 182.782 209.181 189.355 217.301 189.355Z"/><path fill="#F9A826" d="M204.174 266.431L242.505 265.383L231.248 230.005C238.243 218.806 231.203 207.618 221.239 196.433L213.363 191.19L200.761 190.141C195.305 195.971 192.32 203.683 192.43 211.662C192.68 228.748 195.709 247.347 204.174 266.431Z"/><path fill="#FFB8B8" d="M292.24 290.245C292.97 289.516 293.516 288.625 293.833 287.644C294.151 286.664 294.23 285.622 294.065 284.604C293.9 283.587 293.495 282.624 292.884 281.793C292.273 280.963 291.473 280.289 290.55 279.828L274.481 271.8L268.598 278.825L283.579 290.734C284.83 291.729 286.405 292.229 288.003 292.139C289.6 292.049 291.108 291.375 292.24 290.245Z"/><path fill="#F9A826" d="M272.959 286.356L279.26 271.15L245.134 249.664L230.764 205.292C230.016 202.984 228.456 201.024 226.372 199.776C224.289 198.528 221.823 198.077 219.431 198.505C217.983 198.765 216.61 199.339 215.408 200.186C214.207 201.034 213.207 202.135 212.478 203.412C211.75 204.688 211.311 206.108 211.192 207.573C211.074 209.037 211.28 210.51 211.794 211.886L222.814 250.439L272.959 286.356Z"/><path fill="#2F2E41" d="M193.148 168.906C193.148 174.619 196.863 183.465 201.549 187.258C204.702 189.809 208.869 189.702 210.475 186.209C212.123 182.626 217.804 174.204 227.802 168.906C241.131 161.844 223.076 149.761 210.475 151.603C201.006 152.988 193.148 159.35 193.148 168.906Z"/><path fill="#2F2E41" d="M202.074 161.041C207.874 161.041 212.575 156.346 212.575 150.554C212.575 144.763 207.874 140.068 202.074 140.068C196.274 140.068 191.572 144.763 191.572 150.554C191.572 156.346 196.274 161.041 202.074 161.041Z"/><path fill="#2F2E41" d="M214.151 146.884C214.15 144.24 213.148 141.695 211.347 139.757C209.545 137.82 207.077 136.634 204.437 136.437C204.698 136.418 204.959 136.398 205.224 136.398C208.01 136.398 210.681 137.502 212.65 139.469C214.619 141.436 215.726 144.103 215.726 146.884C215.726 149.665 214.619 152.333 212.65 154.299C210.681 156.266 208.01 157.371 205.224 157.371C204.959 157.371 204.698 157.35 204.437 157.331C207.077 157.134 209.545 155.948 211.347 154.011C213.148 152.074 214.15 149.528 214.151 146.884Z"/><path fill="#FFB8B8" d="M217.564 179.917C218.869 179.917 219.926 178.508 219.926 176.771C219.926 175.033 218.869 173.625 217.564 173.625C216.259 173.625 215.201 175.033 215.201 176.771C215.201 178.508 216.259 179.917 217.564 179.917Z"/><path fill="#FE6052" d="M515.104 420.491H351.628L317.011 257.076H287.467V249.744H322.963L357.58 413.158H515.104V420.491Z"/><path fill="#FE6052" d="M375.585 450.346C384.275 450.346 391.32 443.311 391.32 434.633C391.32 425.955 384.275 418.92 375.585 418.92C366.894 418.92 359.849 425.955 359.849 434.633C359.849 443.311 366.894 450.346 375.585 450.346Z"/><path fill="#FE6052" d="M493.075 450.346C501.765 450.346 508.81 443.311 508.81 434.633C508.81 425.955 501.765 418.92 493.075 418.92C484.384 418.92 477.339 425.955 477.339 434.633C477.339 443.311 484.384 450.346 493.075 450.346Z"/><path fill="#FE6052" d="M512.123 417.038H353.071L325.008 278.551H538.459C539.548 278.551 540.624 278.786 541.613 279.241C542.603 279.697 543.481 280.36 544.189 281.187C544.897 282.013 545.418 282.983 545.714 284.03C546.011 285.076 546.077 286.174 545.908 287.249L519.572 410.677C519.3 412.453 518.398 414.072 517.031 415.24C515.664 416.408 513.922 417.046 512.123 417.038ZM354.798 414.943H512.123C513.421 414.949 514.679 414.488 515.665 413.645C516.652 412.803 517.302 411.634 517.498 410.352L543.835 286.924C543.957 286.148 543.91 285.355 543.695 284.6C543.481 283.845 543.106 283.145 542.595 282.548C542.084 281.951 541.45 281.472 540.736 281.144C540.022 280.816 539.245 280.646 538.459 280.646H327.554L354.798 414.943Z"/><path fill="#FE6052" d="M383.991 416.595L365.613 279.769L367.682 279.427L386.061 416.254L383.991 416.595Z"/><path fill="#FE6052" d="M486.181 415.544L484.11 415.209L501.951 279.43L504.023 279.766L486.181 415.544Z"/><path fill="#FE6052" d="M437.493 279.598H435.395V416.424H437.493V279.598Z"/><path fill="#FE6052" d="M335.725 316.262L335.72 318.357L538.806 318.848L538.811 316.753L335.725 316.262Z"/><path fill="#FE6052" d="M524.48 380.98L346.064 382.198L346.078 384.293L524.494 383.075L524.48 380.98Z"/><path fill="#FE6052" d="M290.614 258.647C296.987 258.647 302.154 255.833 302.154 252.362C302.154 248.891 296.987 246.077 290.614 246.077C284.241 246.077 279.075 248.891 279.075 252.362C279.075 255.833 284.241 258.647 290.614 258.647Z"/></g><defs><clipPath id="clip0_7_22"><rect width="546" height="455" fill="#fff"/></clipPath></defs></svg>